<svg xmlns="http://www.w3.org/2000/svg" viewBox="0 0 200 200" width="200" height="200">
	<!-- Arrows symbol -->
	<g fill="#2d8acd" transform="translate(100, 70) scale(1.5)">
		<path transform="translate(-50, -50)" d="M35.822,21.061c8.877,0.261,16.278,3.112,22.344,9.105c1.02,1.007,1.862,1.383,3.196,0.678  c1.135-0.6,2.4-0.948,3.584-1.46c1.17-0.506,1.687-0.421,1.453,1.086c-0.744,4.796-1.39,9.607-2.081,14.411  c-0.306,2.128-0.647,4.251-0.936,6.381c-0.143,1.055-0.554,1.309-1.425,0.62c-5.598-4.425-11.193-8.855-16.804-13.262  c-1.002-0.787-0.533-1.142,0.32-1.479c0.972-0.384,1.941-0.774,2.907-1.172c0.489-0.202,1.214-0.249,1.232-0.898  c0.014-0.504-0.622-0.706-1.017-0.981c-7.132-4.97-17.108-5.073-24.534-0.159c-6.465,4.279-9.702,10.438-10.144,18.109  c-0.18,3.131-1.942,5.125-4.643,5.087c-2.693-0.038-4.588-2.316-4.527-5.442c0.299-15.337,12.257-28.445,27.624-30.27  C33.651,21.262,34.936,21.151,35.822,21.061z"/>
		<path transform="translate(-50, -50)" d="M63.149,76.87c-7.916-0.206-15.29-3.125-21.373-9.075c-1.033-1.01-1.879-1.349-3.197-0.648  c-1.079,0.573-2.291,0.888-3.415,1.384c-1.282,0.565-1.851,0.323-1.622-1.184c0.665-4.373,1.302-8.749,1.945-13.125  c0.33-2.248,0.654-4.498,0.97-6.748c0.296-2.105,0.518-2.219,2.137-0.944c5.268,4.146,10.511,8.324,15.794,12.452  c1.139,0.89,1.436,1.475-0.233,1.994c-0.935,0.291-1.812,0.768-2.741,1.083c-1.481,0.503-1.182,1.077-0.141,1.764  c5.296,3.493,11.052,4.59,17.262,3.319c9.38-1.92,17.277-10.642,17.434-20.875c0.05-3.239,1.767-5.249,4.389-5.391  c2.683-0.145,4.711,1.851,4.785,4.709c0.337,13.023-8.736,25.494-21.634,29.705C70.331,76.326,67.061,76.839,63.149,76.87z"/>
	</g>

	<!-- BATbern text (scaled bigger and centered) -->
	<g fill="#2d8acd" transform="translate(100, 155) scale(2.4)">
		<path transform="translate(-40, -10)" d="M10.44 11.180000000000001 c1.18 0.82 1.96 2.22 1.96 3.82 c0 2.54 -2 4.6 -4.46 4.6 l-5.94 0 l0 -15 l5.94 0 c2.02 0 3.64 1.72 3.64 3.8 c0 1.08 -0.44 2.08 -1.14 2.78 z M4.22 6.440000000000001 l0 3.96 l3.72 0 l0.06 0 c0.76 -0.06 1.36 -0.96 1.36 -2 c0 -1.06 -0.64 -1.96 -1.42 -1.96 l-3.72 0 z M7.94 17.76 c1.24 0 2.24 -1.24 2.24 -2.76 c0 -1.48 -0.96 -2.7 -2.14 -2.76 l-0.1 0 l-3.72 0 l0 5.52 l3.72 0 z M21.52 4.600000000000001 l6.16 15 l-2.4 0 l-1.5 -3.92 l-5.9 0 l-1.48 3.92 l-2.4 0 l6.16 -15 l1.36 0 z M18.58 13.840000000000002 l4.5 0 l-2.24 -5.92 z M39.38 4.600000000000001 l0 1.84 l-4.64 0 l0 13.16 l-2.22 0 l0 -13.16 l-4.64 0 l0 -1.84 l11.5 0 z M45.540000000000006 9.540000000000001 c2.84 0 4.94 2.2 4.94 5.14 s-2.1 5.12 -4.94 5.12 c-0.96 0 -2.06 -0.36 -2.84 -0.94 l0 0.74 l-2.06 0 l0 -15 l2.06 0 l0 5.9 c0.66 -0.54 1.88 -0.96 2.84 -0.96 z M45.34 18.12 c1.7 0 3.08 -1.44 3.08 -3.44 c0 -2.02 -1.38 -3.44 -3.08 -3.44 c-1.12 0 -2.1 0.5 -2.64 1.56 c-0.28 0.56 -0.44 1.2 -0.44 1.88 s0.16 1.32 0.44 1.86 c0.54 1.06 1.52 1.58 2.64 1.58 z M61.8 14.680000000000001 l0 0.74 l-7.78 0 c0 1.82 1.74 2.7 3.02 2.7 c0.94 0 1.98 -0.5 2.54 -1.3 l1.42 1.28 c-0.66 0.9 -1.74 1.7 -3.96 1.7 c-3.2 0 -5.16 -2.18 -5.16 -5.12 s1.9 -5.14 4.96 -5.14 s4.46 1.7 4.88 4.18 c0.06 0.32 0.08 0.64 0.08 0.96 z M54.06 13.720000000000002 l5.58 0 c0 -1.6 -1.28 -2.48 -2.8 -2.48 s-2.78 1.02 -2.78 2.48 z M69.74 9.840000000000002 l-0.44 1.62 c-0.14 -0.08 -0.58 -0.22 -0.94 -0.22 c-1.7 0 -2.5 1.62 -2.5 3.62 l0 4.74 l-2.06 0 l0 -9.88 l2.06 0 l0 1.4 c0.24 -0.92 1.3 -1.58 2.48 -1.58 c0.54 0 1.12 0.14 1.4 0.3 z M80.08000000000001 13.900000000000002 l0 5.7 l-2.06 0 l0 -5.5 c0 -2 -0.62 -2.88 -2.32 -2.88 c-1.92 0 -2.7 1.34 -2.7 3.08 l0 5.3 l-2.06 0 l0 -9.88 l2.06 0 l0 1.6 c0.28 -0.88 1.52 -1.68 2.7 -1.76 c2.68 -0.2 4.38 1.1 4.38 4.34 z"/>
	</g>
</svg>
