<?xml version="1.0" encoding="utf-8"?>
<!-- Generator: Adobe Illustrator 26.2.1, SVG Export Plug-In . SVG Version: 6.00 Build 0)  -->
<svg version="1.1" xmlns="http://www.w3.org/2000/svg" xmlns:xlink="http://www.w3.org/1999/xlink" x="0px" y="0px"
	 viewBox="0 0 121.0393677 67.1810989" style="enable-background:new 0 0 121.0393677 67.1810989;" xml:space="preserve">
<style type="text/css">
	.st0{display:none;}
	.st1{display:inline;fill:#C50084;}
	.st2{fill:#DC0528;}
</style>
<g id="Schutzzone" class="st0">
	<rect class="st1" width="12.7559052" height="12.7559052"/>
	<rect y="54.4251976" class="st1" width="12.7559052" height="12.7559052"/>
	<rect x="108.2834625" class="st1" width="12.7559052" height="12.7559052"/>
	<rect x="108.2834625" y="54.4251976" class="st1" width="12.7559052" height="12.7559052"/>
</g>
<g id="aity">
	<g>
		<circle class="st2" cx="37.9915848" cy="20.9517937" r="3.0684202"/>
		<circle class="st2" cx="41.0602875" cy="30.5028362" r="5.083487"/>
		<path class="st2" d="M34.7387428,37.5807877c0.4602051-1.5296936-0.3513794-3.1769943-1.8451157-3.7451286
			c-0.4014969-0.1525421-0.8131485-0.2156982-1.2140236-0.199482c-0.6781921,0.0270576-1.3070087-0.3549271-1.6088829-0.9626427
			l-0.6669807-1.343401c-0.1213684-0.2445393-0.1607628-0.5068359-0.1601353-0.7679424
			c0.7429352-0.3948917,1.3187428-1.033371,1.6656284-1.7921944c0.1067028-0.2336063,0.1878929-0.4778194,0.2457581-0.7323017
			c0.0867157-0.3811779,0.1330357-0.7764549,0.0954628-1.1867008c-0.1918335-2.094553-2.0453148-3.6372585-4.1401367-3.4454021
			c-0.3118286,0.0285587-0.6056099,0.1040077-0.8889961,0.2016964c-1.1388378,0.3917809-2.0212612,1.2924213-2.3863316,2.4180546
			c-0.0803223,0.0505066-0.158823,0.1003056-0.2463512,0.1369076c-0.2784119,0.1166496-0.5855827,0.1695919-0.8967781,0.1285172
			l-1.4866505-0.1933899c-0.7077656-0.0926704-1.2770309-0.6106339-1.4589252-1.3010731
			c-0.0044594-0.0163116-0.0089703-0.0331573-0.0134296-0.049469c-0.1898861-0.6805382,0.0535412-1.4088516,0.614315-1.8404579
			l2.4054852-1.8497086c0.4243488-0.3252621,0.9670105-0.4305172,1.4673729-0.3086033
			c0.2248344,0.1875992,0.4691086,0.3577785,0.7359276,0.5032387c2.1959038,1.1974392,4.9463692,0.3878384,6.143858-1.8075314
			c1.1974392-2.1959038,0.3883724-4.9464178-1.8075314-6.143856c-2.1956367-1.197463-4.9464188-0.3883724-6.143856,1.8075304
			c-0.1766663,0.3236141-0.2962589,0.6608782-0.3876667,1.002574c-0.1349926,0.5047951-0.1864834,1.0202827-0.1454906,1.5267601
			c0.0493774,0.6098061,0.2187099,1.2043114,0.5029621,1.7462196c-0.0250492,0.4979649-0.2469807,0.9751263-0.6593971,1.292284
			l-2.4055824,1.8486385c-0.5585155,0.4297829-1.3231964,0.4841747-1.9294357,0.1249332
			c-1.2251968-0.7248707-2.8234997-0.6680222-4.0122986,0.2736244c-1.5166655,1.2014389-1.7858315,3.4272079-0.6000414,4.955555
			c1.1962051,1.5419559,3.4162722,1.8283653,4.9659376,0.6368465c0.3864384-0.2975197,0.6950054-0.6591034,0.9211483-1.0579033
			c0.3528881-0.6196804,1.0372295-0.9741497,1.7441902-0.8814049l1.4863853,0.1934147
			c0.3157902,0.0411949,0.6037292,0.1728535,0.8448544,0.36166c0.0717392,0.055994,0.1310863,0.1239109,0.1930103,0.1905136
			c0.0023117,0.0752983-0.0090923,0.148077-0.0020866,0.2245636c0.0633411,0.6915894,0.3209,1.3130703,0.6956406,1.8418388
			c0.7597237,1.0722389,2.0415287,1.7320576,3.4444942,1.6035633c0.1938915-0.0177574,0.3771133-0.0636635,0.5606518-0.1090584
			c0.2504711,0.164217,0.4667664,0.3822632,0.6062737,0.6628971l0.6666622,1.3428917
			c0.3018742,0.6077156,0.2261906,1.3390007-0.2055855,1.8628883c-0.2553787,0.3092499-0.454361,0.6748199-0.5754833,1.0866547
			c-0.4507694,1.532608,0.3711185,3.1746483,1.8686161,3.7338104C32.3898125,40.1922836,34.22752,39.2807388,34.7387428,37.5807877z
			"/>
	</g>
	<path d="M63.8892479,32.7768173c-0.6308594-1.0722637-1.5126953-1.9296856-2.6201172-2.5498028
		c-1.1083984-0.6191406-2.3808594-0.9335938-3.78125-0.9335938c-1.4482422,0-2.796875,0.3496094-4.0107422,1.0400391
		c-1.2089844,0.6875-2.2060547,1.5410156-2.9628906,2.5351543l-0.0732422,0.0957031l2.65625,2.6542969l0.0966797-0.1142578
		c0.4794922-0.5712891,1.0878906-1.0634766,1.8085938-1.4648438c0.7148438-0.3964844,1.4912109-0.5976562,2.3095703-0.5976562
		c0.5839844,0,1.1308594,0.1298828,1.625,0.3876953c0.4970703,0.2607422,0.8896484,0.5849609,1.1669922,0.9628906
		c0.2558594,0.3476562,0.3935547,0.6962891,0.4121094,1.0371094l-5.6923828,1.0341797
		c-1.5488281,0.2626953-2.8173828,0.9101562-3.7724609,1.9248047c-0.9589844,1.0195312-1.4453125,2.2539062-1.4453125,3.6669922
		c0,0.890625,0.25,1.7382812,0.7431641,2.5185547c0.4931641,0.7832031,1.1855469,1.4091797,2.0585938,1.8623047
		c0.8710938,0.453125,1.8701172,0.6835938,2.96875,0.6835938c1.1689453,0,2.2167969-0.2666016,3.1132812-0.7929688
		c0.8486328-0.4970703,1.5302734-1.1015625,2.0283203-1.7978516v2.2402344h4.3232384V36.295372
		C64.8413925,35.0326767,64.52108,33.8490829,63.8892479,32.7768173z M60.5181541,39.2738876v0.3662109
		c0,0.7705078-0.1894531,1.4941406-0.5625,2.1484375c-0.3730469,0.65625-0.8779297,1.1777344-1.5,1.5517578
		c-0.6210938,0.3730469-1.3017578,0.5615234-2.0234375,0.5615234c-0.4931641,0-0.9345703-0.0957031-1.3115234-0.2851562
		c-0.375-0.1855469-0.6708984-0.4365234-0.8808594-0.7451172c-0.2060547-0.3046875-0.3105469-0.6220703-0.3105469-0.9433594
		c0-0.5009766,0.1904297-0.8974609,0.5820312-1.2128906c0.4033203-0.3261719,1.1171875-0.5830078,2.1201172-0.7636719
		L60.5181541,39.2738876z"/>
	<g>
		<path d="M70.9175034,27.8080692c0.7392578,0,1.3632812-0.25,1.8574219-0.7441406
			c0.4931641-0.4941406,0.7441406-1.1191406,0.7441406-1.8564453s-0.2509766-1.3623047-0.7451172-1.8583984
			c-0.4951172-0.4931641-1.1191406-0.7431641-1.8564453-0.7431641s-1.3623047,0.25-1.8583984,0.7441406
			c-0.4931641,0.4941406-0.7441406,1.1191406-0.7441406,1.8574219s0.2509766,1.3632812,0.7441406,1.8574219
			C69.5532455,27.5580692,70.1782455,27.8080692,70.9175034,27.8080692z"/>
		<rect x="68.6675034" y="29.9975224" width="4.3232422" height="17.171875"/>
	</g>
	<path d="M87.9502106,42.8940048c-0.7050781,0.3183594-1.3964844,0.4794922-2.0556641,0.4794922
		c-0.6933594,0-1.2128906-0.203125-1.5869141-0.6220703c-0.3740234-0.4179688-0.5634766-1.0507812-0.5634766-1.8808594v-6.7255859
		h3.8720703v-4.147459h-3.8720703v-5.4550781h-3.9716797v3.6572266c0,0.6660156-0.1240234,1.1376953-0.3691406,1.4033203
		c-0.2412109,0.2617188-0.6621094,0.3945312-1.2529297,0.3945312h-1.8984375v4.147459h3.1679688v7.2539062
		c0,1.9267578,0.5039062,3.4453125,1.4980469,4.5117188c0.9951172,1.0673828,2.3730469,1.609375,4.0957031,1.609375
		c1.1416016,0,2.1660156-0.1806641,3.0449219-0.5380859l0.0859375-0.0341797v-4.1416016L87.9502106,42.8940048z"/>
	<path d="M103.518425,29.6449833l-4.3935547,11.9492168l-4.5341797-11.8603497l-0.0341797-0.0888672h-4.6982422
		l6.9189453,17.3847637l-0.5058594,1.1777344c-0.3183594,0.7285156-0.703125,1.2861328-1.1416016,1.6582031
		c-0.4287109,0.3632812-1.0087891,0.5478516-1.7246094,0.5478516c-0.7470703,0-1.4345703-0.171875-2.0449219-0.5107422
		l-0.2041016-0.1132812v4.2021484l0.0898438,0.0332031c0.9511719,0.3554688,1.9736328,0.5361328,3.0390625,0.5361328
		c1.4833984,0,2.7587891-0.5048828,3.7919922-1.5c1.0175781-0.9814453,1.9160156-2.4609375,2.671875-4.3955078l7.3925781-18.8330059
		l0.0742188-0.1875H103.518425z"/>
</g>
</svg>
