<?xml version="1.0" encoding="utf-8"?>
<!-- Generator: Adobe Illustrator 26.0.3, SVG Export Plug-In . SVG Version: 6.00 Build 0)  -->
<svg version="1.1" xmlns="http://www.w3.org/2000/svg" xmlns:xlink="http://www.w3.org/1999/xlink" x="0px" y="0px"
	 viewBox="0 0 153.0708618 67.1810989" style="enable-background:new 0 0 153.0708618 67.1810989;" xml:space="preserve">
<style type="text/css">
	.st0{display:none;}
	.st1{display:inline;fill:#C50084;}
	.st2{fill:#DC0528;}
</style>
<g id="Schutzzone" class="st0">
	<rect class="st1" width="12.7559052" height="12.7559052"/>
	<rect y="54.4251976" class="st1" width="12.7559052" height="12.7559052"/>
	<rect x="140.3149567" class="st1" width="12.7559052" height="12.7559052"/>
	<rect x="140.3149567" y="54.4251976" class="st1" width="12.7559052" height="12.7559052"/>
</g>
<g id="aity">
	<g>
		<circle class="st2" cx="37.9915848" cy="20.9517937" r="3.0684202"/>
		<circle class="st2" cx="41.0602875" cy="30.5028362" r="5.083487"/>
		<path class="st2" d="M34.7387428,37.5807877c0.4602051-1.5296936-0.3513794-3.1769943-1.8451157-3.7451286
			c-0.4014969-0.1525421-0.8131485-0.2156982-1.2140236-0.199482c-0.6781921,0.0270576-1.3070087-0.3549271-1.6088829-0.9626427
			l-0.6669807-1.343401c-0.1213684-0.2445393-0.1607628-0.5068359-0.1601353-0.7679424
			c0.7429352-0.3948917,1.3187428-1.033371,1.6656284-1.7921944c0.1067028-0.2336063,0.1878929-0.4778194,0.2457581-0.7323017
			c0.0867157-0.3811779,0.1330357-0.7764549,0.0954628-1.1867008c-0.1918335-2.094553-2.0453148-3.6372585-4.1401367-3.4454021
			c-0.3118286,0.0285587-0.6056099,0.1040077-0.8889961,0.2016964c-1.1388378,0.3917809-2.0212612,1.2924213-2.3863316,2.4180546
			c-0.0803223,0.0505066-0.158823,0.1003056-0.2463512,0.1369076c-0.2784119,0.1166496-0.5855827,0.1695919-0.8967781,0.1285172
			l-1.4866505-0.1933899c-0.7077656-0.0926704-1.2770309-0.6106339-1.4589252-1.3010731
			c-0.0044594-0.0163116-0.0089703-0.0331573-0.0134296-0.049469c-0.1898861-0.6805382,0.0535412-1.4088516,0.614315-1.8404579
			l2.4054852-1.8497086c0.4243488-0.3252621,0.9670105-0.4305172,1.4673729-0.3086033
			c0.2248344,0.1875992,0.4691086,0.3577785,0.7359276,0.5032387c2.1959038,1.1974392,4.9463692,0.3878384,6.143858-1.8075314
			c1.1974392-2.1959038,0.3883724-4.9464178-1.8075314-6.143856c-2.1956367-1.197463-4.9464188-0.3883724-6.143856,1.8075304
			c-0.1766663,0.3236141-0.2962589,0.6608782-0.3876667,1.002574c-0.1349926,0.5047951-0.1864834,1.0202827-0.1454906,1.5267601
			c0.0493774,0.6098061,0.2187099,1.2043114,0.5029621,1.7462196c-0.0250492,0.4979649-0.2469807,0.9751263-0.6593971,1.292284
			l-2.4055824,1.8486385c-0.5585155,0.4297829-1.3231964,0.4841747-1.9294357,0.1249332
			c-1.2251968-0.7248707-2.8234997-0.6680222-4.0122986,0.2736244c-1.5166655,1.2014389-1.7858315,3.4272079-0.6000414,4.955555
			c1.1962051,1.5419559,3.4162722,1.8283653,4.9659376,0.6368465c0.3864384-0.2975197,0.6950054-0.6591034,0.9211483-1.0579033
			c0.3528881-0.6196804,1.0372295-0.9741497,1.7441902-0.8814049l1.4863853,0.1934147
			c0.3157902,0.0411949,0.6037292,0.1728535,0.8448544,0.36166c0.0717392,0.055994,0.1310863,0.1239109,0.1930103,0.1905136
			c0.0023117,0.0752983-0.0090923,0.148077-0.0020866,0.2245636c0.0633411,0.6915894,0.3209,1.3130703,0.6956406,1.8418388
			c0.7597237,1.0722389,2.0415287,1.7320576,3.4444942,1.6035633c0.1938915-0.0177574,0.3771133-0.0636635,0.5606518-0.1090584
			c0.2504711,0.164217,0.4667664,0.3822632,0.6062737,0.6628971l0.6666622,1.3428917
			c0.3018742,0.6077156,0.2261906,1.3390007-0.2055855,1.8628883c-0.2553787,0.3092499-0.454361,0.6748199-0.5754833,1.0866547
			c-0.4507694,1.532608,0.3711185,3.1746483,1.8686161,3.7338104C32.3898125,40.1922836,34.22752,39.2807388,34.7387428,37.5807877z
			"/>
	</g>
	<path d="M63.8892479,32.7768173c-0.6308594-1.0722637-1.5126953-1.9296856-2.6201172-2.5498028
		c-1.1083984-0.6191406-2.3808594-0.9335938-3.78125-0.9335938c-1.4482422,0-2.796875,0.3496094-4.0107422,1.0400391
		c-1.2089844,0.6875-2.2060547,1.5410156-2.9628906,2.5351543l-0.0732422,0.0957031l2.65625,2.6542969l0.0966797-0.1142578
		c0.4794922-0.5712891,1.0878906-1.0634766,1.8085938-1.4648438c0.7148438-0.3964844,1.4912109-0.5976562,2.3095703-0.5976562
		c0.5839844,0,1.1308594,0.1298828,1.625,0.3876953c0.4970703,0.2607422,0.8896484,0.5849609,1.1669922,0.9628906
		c0.2558594,0.3476562,0.3935547,0.6962891,0.4121094,1.0371094l-5.6923828,1.0341797
		c-1.5488281,0.2626953-2.8173828,0.9101562-3.7724609,1.9248047c-0.9589844,1.0195312-1.4453125,2.2539062-1.4453125,3.6669922
		c0,0.890625,0.25,1.7382812,0.7431641,2.5185547c0.4931641,0.7832031,1.1855469,1.4091797,2.0585938,1.8623047
		c0.8710938,0.453125,1.8701172,0.6835938,2.96875,0.6835938c1.1689453,0,2.2167969-0.2666016,3.1132812-0.7929688
		c0.8486328-0.4970703,1.5302734-1.1015625,2.0283203-1.7978516v2.2402344h4.3232384V36.295372
		C64.8413925,35.0326767,64.52108,33.8490829,63.8892479,32.7768173z M60.5181541,39.2738876v0.3662109
		c0,0.7705078-0.1894531,1.4941406-0.5625,2.1484375c-0.3730469,0.65625-0.8779297,1.1777344-1.5,1.5517578
		c-0.6210938,0.3730469-1.3017578,0.5615234-2.0234375,0.5615234c-0.4931641,0-0.9345703-0.0957031-1.3115234-0.2851562
		c-0.375-0.1855469-0.6708984-0.4365234-0.8808594-0.7451172c-0.2060547-0.3046875-0.3105469-0.6220703-0.3105469-0.9433594
		c0-0.5009766,0.1904297-0.8974609,0.5820312-1.2128906c0.4033203-0.3261719,1.1171875-0.5830078,2.1201172-0.7636719
		L60.5181541,39.2738876z"/>
	<g>
		<path d="M70.9175034,27.8080692c0.7392578,0,1.3632812-0.25,1.8574219-0.7441406
			c0.4931641-0.4941406,0.7441406-1.1191406,0.7441406-1.8564453s-0.2509766-1.3623047-0.7451172-1.8583984
			c-0.4951172-0.4931641-1.1191406-0.7431641-1.8564453-0.7431641s-1.3623047,0.25-1.8583984,0.7441406
			c-0.4931641,0.4941406-0.7441406,1.1191406-0.7441406,1.8574219s0.2509766,1.3632812,0.7441406,1.8574219
			C69.5532455,27.5580692,70.1782455,27.8080692,70.9175034,27.8080692z"/>
		<rect x="68.6675034" y="29.9975224" width="4.3232422" height="17.171875"/>
	</g>
	<path d="M87.9502106,42.8940048c-0.7050781,0.3183594-1.3964844,0.4794922-2.0556641,0.4794922
		c-0.6933594,0-1.2128906-0.203125-1.5869141-0.6220703c-0.3740234-0.4179688-0.5634766-1.0507812-0.5634766-1.8808594v-6.7255859
		h3.8720703v-4.147459h-3.8720703v-5.4550781h-3.9716797v3.6572266c0,0.6660156-0.1240234,1.1376953-0.3691406,1.4033203
		c-0.2412109,0.2617188-0.6621094,0.3945312-1.2529297,0.3945312h-1.8984375v4.147459h3.1679688v7.2539062
		c0,1.9267578,0.5039062,3.4453125,1.4980469,4.5117188c0.9951172,1.0673828,2.3730469,1.609375,4.0957031,1.609375
		c1.1416016,0,2.1660156-0.1806641,3.0449219-0.5380859l0.0859375-0.0341797v-4.1416016L87.9502106,42.8940048z"/>
	<path d="M103.518425,29.6449833l-4.3935547,11.9492168l-4.5341797-11.8603497l-0.0341797-0.0888672h-4.6982422
		l6.9189453,17.3847637l-0.5058594,1.1777344c-0.3183594,0.7285156-0.703125,1.2861328-1.1416016,1.6582031
		c-0.4287109,0.3632812-1.0087891,0.5478516-1.7246094,0.5478516c-0.7470703,0-1.4345703-0.171875-2.0449219-0.5107422
		l-0.2041016-0.1132812v4.2021484l0.0898438,0.0332031c0.9511719,0.3554688,1.9736328,0.5361328,3.0390625,0.5361328
		c1.4833984,0,2.7587891-0.5048828,3.7919922-1.5c1.0175781-0.9814453,1.9160156-2.4609375,2.671875-4.3955078l7.3925781-18.8330059
		l0.0742188-0.1875H103.518425z"/>
	<g>
		<path d="M117.7852783,31.6320171c0.3158188,0,0.5908203,0.0666008,0.8249969,0.1998043
			c0.2341843,0.1321278,0.4114304,0.2921867,0.5295944,0.4780273h0.0429688v-2.4556637h0.9732361v5.9286137h-0.9732361V35.189827
			h-0.0429688c-0.1181641,0.1869164-0.2954102,0.3459015-0.5295944,0.4791031
			c-0.2341766,0.1321297-0.5091782,0.1987305-0.8249969,0.1987305c-0.3276367,0-0.6348648-0.0913086-0.9195328-0.2739258
			s-0.5134735-0.4350586-0.6864243-0.7562485c-0.171875-0.3211937-0.2578125-0.6832047-0.2578125-1.0871124
			c0-0.403904,0.0859375-0.7669907,0.2578125-1.0881805c0.1729507-0.3211937,0.4017563-0.5725594,0.6864243-0.7551765
			S117.4576416,31.6320171,117.7852783,31.6320171z M116.8958206,33.7503738c0,0.2116241,0.0504913,0.4049835,0.1525421,0.5800781
			c0.100975,0.1740265,0.2395477,0.3115234,0.41465,0.4125023c0.1750946,0.0999031,0.3673782,0.1503906,0.5757828,0.1503906
			c0.2094727,0,0.4006805-0.0504875,0.5757751-0.1503906c0.1751022-0.1009789,0.3136749-0.2384758,0.4157257-0.4125023
			c0.100975-0.1750946,0.1525421-0.368454,0.1525421-0.5800781c0-0.2126923-0.0515671-0.4060516-0.1525421-0.5800781
			c-0.1020508-0.1740227-0.2406235-0.3115234-0.4157257-0.4124985c-0.1750946-0.100975-0.3663025-0.1514664-0.5757751-0.1514664
			c-0.2084045,0-0.4006882,0.0504913-0.5757828,0.1514664c-0.1751022,0.100975-0.3136749,0.2384758-0.41465,0.4124985
			C116.946312,33.3443222,116.8958206,33.5376816,116.8958206,33.7503738z"/>
		<path d="M121.3001175,30.5309429c0-0.1686535,0.0569382-0.3104496,0.1697311-0.4232426s0.2535172-0.1697273,0.4232407-0.1697273
			s0.3104477,0.0569344,0.4232407,0.1697273s0.1697311,0.2545891,0.1697311,0.4232426
			c0,0.1697254-0.0569382,0.3115234-0.1697311,0.4243164s-0.2535172,0.1686516-0.4232407,0.1686516
			s-0.3104477-0.0558586-0.4232407-0.1686516S121.3001175,30.7006683,121.3001175,30.5309429z M122.3592987,31.7168789v4.0659199
			h-0.9743118v-4.0659199H122.3592987z"/>
		<path d="M125.1952362,37.5617027c-0.3888626,0-0.7379837-0.0816383-1.0452118-0.2459946
			c-0.3083038-0.1632805-0.5521469-0.3641624-0.7326202-0.6015625l0.6348648-0.6348648
			c0.129982,0.1525383,0.2932587,0.2825203,0.490921,0.3899422c0.1976547,0.1063461,0.4157181,0.1600571,0.6520462,0.1600571
			c0.2374039,0,0.4468765-0.0494118,0.6273422-0.1482391c0.1804733-0.0988312,0.319046-0.2406273,0.41465-0.4275398
			c0.0966797-0.1858406,0.1439438-0.402832,0.1439438-0.65205v-0.3813477h-0.041893
			c-0.0730438,0.119236-0.1707993,0.2288055-0.2921829,0.3308563c-0.1213913,0.1009789-0.2653351,0.1847687-0.431839,0.2492218
			c-0.1665039,0.0655251-0.3491211,0.0977516-0.5467758,0.0977516c-0.3104477,0-0.6058578-0.0913086-0.8851547-0.2749977
			c-0.2792969-0.1836929-0.5048828-0.4329109-0.6778336-0.7498055c-0.171875-0.3158226-0.2578125-0.6660156-0.2578125-1.0505867
			c0-0.3834953,0.0859375-0.7336922,0.2578125-1.049511c0.1729507-0.3168945,0.3985367-0.5661125,0.6778336-0.7498055
			c0.2792969-0.183691,0.574707-0.2749996,0.8851547-0.2749996c0.2932587,0,0.5489273,0.065527,0.7669907,0.1987305
			c0.2169952,0.1321297,0.385643,0.2921886,0.5038071,0.4780254h0.041893v-0.5929661h0.9743195v3.769434
			c0,0.4006805-0.0945282,0.7669907-0.2835922,1.0967751c-0.189064,0.3308601-0.449028,0.5897484-0.7788086,0.7798843
			C125.9622269,37.4671707,125.5969925,37.5617027,125.1952362,37.5617027z M124.2219925,33.6225433
			c0,0.2202148,0.0472717,0.4178696,0.1439514,0.592968c0.0956039,0.1750984,0.2266541,0.3104515,0.393158,0.4071312
			c0.1665039,0.0956039,0.3544922,0.1439438,0.5639648,0.1439438c0.1976624,0,0.3770523-0.0483398,0.5371094-0.1439438
			c0.1611328-0.0966797,0.2889709-0.2320328,0.3813477-0.4071312c0.0934601-0.1750984,0.1396484-0.3727531,0.1396484-0.592968
			s-0.0461884-0.4178696-0.1396484-0.592968c-0.0923767-0.1740227-0.2202148-0.3104515-0.3813477-0.4060555
			c-0.1600571-0.0956039-0.339447-0.1439438-0.5371094-0.1439438c-0.2094727,0-0.3974609,0.0483398-0.5639648,0.1439438
			s-0.297554,0.2320328-0.393158,0.4060555C124.2692642,33.2046738,124.2219925,33.4023285,124.2219925,33.6225433z"/>
		<path d="M128.4565582,30.5309429c0-0.1686535,0.0569458-0.3104496,0.1697388-0.4232426s0.2535095-0.1697273,0.423233-0.1697273
			s0.3104553,0.0569344,0.4232483,0.1697273s0.1697235,0.2545891,0.1697235,0.4232426
			c0,0.1697254-0.0569305,0.3115234-0.1697235,0.4243164s-0.2535248,0.1686516-0.4232483,0.1686516
			s-0.3104401-0.0558586-0.423233-0.1686516S128.4565582,30.7006683,128.4565582,30.5309429z M129.5157471,31.7168789v4.0659199
			h-0.9743195v-4.0659199H129.5157471z"/>
		<path d="M130.3203278,32.6492996v-0.9324207h0.4232483c0.1525421,0,0.2610321-0.0343742,0.3265686-0.1052723
			c0.0644531-0.0708981,0.0977478-0.1912117,0.0977478-0.3598633v-0.847559h0.8894501v1.3126945h0.9313507v0.9324207h-0.9313507
			v1.6510773c0,0.2094727,0.0472717,0.367382,0.1439514,0.4748039c0.0955963,0.1074219,0.230957,0.1611328,0.4060516,0.1611328
			c0.1632843,0,0.3330078-0.0397453,0.5081024-0.1192398v0.9238281c-0.2083893,0.0837898-0.4490204,0.1267586-0.7197266,0.1267586
			c-0.4071198,0-0.7272491-0.1256828-0.9614258-0.3770523c-0.2341766-0.2513657-0.3512726-0.6058578-0.3512726-1.0634766v-1.777832
			H130.3203278z"/>
		<path d="M135.5721893,31.5482273c0.3330078,0,0.6305695,0.0730476,0.8926697,0.2202148
			c0.2631836,0.1460934,0.4694366,0.3469715,0.6187592,0.6004887c0.1493073,0.2545891,0.2245026,0.5317383,0.2245026,0.8303719
			v2.5834961h-0.9743042v-0.551075h-0.0419006c-0.1192322,0.1750984-0.2835999,0.325489-0.4952087,0.4490242
			c-0.2127075,0.1246071-0.456543,0.1869125-0.7326202,0.1869125c-0.259964,0-0.4930725-0.0537109-0.6993256-0.1611328
			c-0.2062378-0.1074219-0.3673706-0.2524414-0.4823151-0.4361343c-0.1160126-0.1836891-0.1740265-0.3791962-0.1740265-0.5886688
			c0-0.3330078,0.112793-0.6198273,0.3383789-0.859375c0.2266541-0.2406273,0.5231476-0.3910179,0.8894501-0.4533234
			l1.3975677-0.2545891v-0.0085945c0-0.0956039-0.0354614-0.1912079-0.1052856-0.2878876
			c-0.0708923-0.0956078-0.1686401-0.1761742-0.2921753-0.2406273c-0.1246185-0.0655251-0.259964-0.0977516-0.407135-0.0977516
			c-0.2030334,0-0.393158,0.0494118-0.5714874,0.1482391c-0.1783142,0.0988312-0.3265533,0.2191429-0.4447174,0.3598633
			l-0.5929718-0.592968c0.1804657-0.2374001,0.4146423-0.4372063,0.7036133-0.6015606
			C134.9115448,31.6298676,135.2273712,31.5482273,135.5721893,31.5482273z M135.3175964,35.0630722
			c0.1804657,0,0.3491211-0.0472679,0.5038147-0.1396484c0.1557617-0.0934601,0.2792969-0.2223663,0.372757-0.3856468
			c0.0934448-0.1632805,0.1396484-0.3416023,0.1396484-0.533886v-0.1267586l-0.9732513,0.1697273
			c-0.2492218,0.0451164-0.4243164,0.1084976-0.5252838,0.190136c-0.1020508,0.0816422-0.1525421,0.1879883-0.1525421,0.3179703
			c0,0.0848618,0.0268555,0.1665039,0.0805664,0.2449226c0.0537109,0.0794907,0.1278229,0.142868,0.2245026,0.1912079
			C135.0834198,35.0383644,135.1929932,35.0630722,135.3175964,35.0630722z"/>
		<path d="M139.5102692,29.8541851v5.9286137h-0.9743042v-5.9286137H139.5102692z"/>
		<path d="M111.9685059,41.7790871v-0.9324226h0.6348648v-0.5081062c0-0.4576149,0.1181641-0.8110352,0.3523407-1.0624008
			c0.2341766-0.2513695,0.5542984-0.3770523,0.9614258-0.3770523c0.2653351,0,0.5048828,0.0418968,0.7197266,0.1267586v0.9313469
			c-0.147171-0.0837898-0.301857-0.1267586-0.4662094-0.1267586c-0.1697311,0-0.3104477,0.059082-0.4232407,0.1783218
			c-0.112793,0.1181641-0.1697311,0.2707024-0.1697311,0.456543v0.3813477h2.5834961v4.065918h-0.9743118v-3.1334953h-1.6091843
			v3.1334953h-0.9743118v-3.1334953H111.9685059z M115.1019974,39.5769386c0-0.1697273,0.0569382-0.3104515,0.1697311-0.4243164
			c0.112793-0.112793,0.2545853-0.1686516,0.4232407-0.1686516c0.1697235,0,0.3104477,0.0558586,0.4243164,0.1686516
			c0.112793,0.1138649,0.1686554,0.2545891,0.1686554,0.4243164c0,0.1686516-0.0558624,0.3104477-0.1686554,0.4232407
			c-0.1138687,0.112793-0.2545929,0.1697273-0.4243164,0.1697273c-0.1686554,0-0.3104477-0.0569344-0.4232407-0.1697273
			S115.1019974,39.7455902,115.1019974,39.5769386z"/>
		<path d="M119.3376465,41.7361183c-0.1976547,0-0.372757,0.0429688-0.5252914,0.1278305
			c-0.1525421,0.0859375-0.2728577,0.2062492-0.3598633,0.3630867c-0.088089,0.1568375-0.1310577,0.3373032-0.1310577,0.5403328
			v2.1452141h-0.9743195v-4.1507797h0.9743195v0.592968h0.041893c0.129982-0.1858406,0.3007812-0.3308601,0.5124054-0.4361343
			c0.2116165-0.1041985,0.4500961-0.1568336,0.7154312-0.1568336c0.2997055,0,0.5682602,0.0708961,0.8045883,0.2126923
			c0.2374039,0.1407242,0.4243164,0.3426781,0.5596695,0.6058617c0.1353455,0.2621078,0.2030258,0.5704079,0.2030258,0.9249001
			v2.4073257h-0.9743195v-2.2601547c0-0.1933594-0.0354462-0.3577156-0.1052704-0.4952164
			c-0.0709-0.1375008-0.1697311-0.2416992-0.2964859-0.3136711C119.6556168,41.7726402,119.50737,41.7361183,119.3376465,41.7361183
			z"/>
		<path d="M123.9116669,40.6780128c0.3330078,0,0.6305695,0.0730476,0.8926773,0.2202148
			c0.2631836,0.1460915,0.4694366,0.3469734,0.6187515,0.6004868c0.1493149,0.2545891,0.2245102,0.5317383,0.2245102,0.8303719
			v2.5834961h-0.9743195v-0.551075h-0.041893c-0.1192398,0.1750984-0.2835922,0.325489-0.4952164,0.4490242
			c-0.2126923,0.1246109-0.456543,0.1869125-0.7326126,0.1869125c-0.259964,0-0.4930649-0.0537109-0.6993179-0.1611328
			s-0.3673859-0.2524414-0.4823227-0.4361305c-0.1160202-0.1836929-0.1740265-0.3792-0.1740265-0.5886726
			c0-0.3330078,0.112793-0.6198235,0.3383789-0.859375c0.2266617-0.2406235,0.5231476-0.3910141,0.8894577-0.4533195
			l1.3975525-0.2545891V42.23563c0-0.0956078-0.0354462-0.1912117-0.1052704-0.2878914
			c-0.0709-0.0956039-0.1686554-0.1761703-0.2921906-0.2406235c-0.1246033-0.0655289-0.2599564-0.0977554-0.4071274-0.0977554
			c-0.2030258,0-0.3931656,0.0494156-0.5714798,0.148243c-0.1783218,0.0988274-0.3265686,0.2191391-0.4447327,0.3598633
			l-0.5929642-0.592968c0.1804657-0.2374039,0.41465-0.4372101,0.7036133-0.6015625
			C123.2510223,40.7596512,123.5668411,40.6780128,123.9116669,40.6780128z M123.6570816,44.1928558
			c0.1804657,0,0.3491211-0.0472641,0.5038071-0.1396484c0.1557617-0.0934563,0.2792969-0.2223625,0.3727493-0.385643
			c0.0934601-0.1632843,0.1396484-0.3416023,0.1396484-0.5338898v-0.1267548l-0.9732361,0.1697235
			c-0.2492218,0.0451202-0.4243164,0.1084976-0.5252991,0.1901398c-0.1020508,0.0816383-0.1525345,0.1879883-0.1525345,0.3179665
			c0,0.0848656,0.0268555,0.1665039,0.0805664,0.2449226c0.0537109,0.0794907,0.1278305,0.1428719,0.2245102,0.1912117
			C123.4228973,44.168148,123.5324707,44.1928558,123.6570816,44.1928558z"/>
		<path d="M128.8240662,41.7361183c-0.1976471,0-0.372757,0.0429688-0.5252838,0.1278305
			c-0.1525421,0.0859375-0.2728577,0.2062492-0.3598709,0.3630867c-0.0880814,0.1568375-0.1310501,0.3373032-0.1310501,0.5403328
			v2.1452141h-0.9743195v-4.1507797h0.9743195v0.592968h0.041893c0.129982-0.1858406,0.3007736-0.3308601,0.5123978-0.4361343
			c0.2116241-0.1041985,0.4501038-0.1568336,0.7154388-0.1568336c0.2996979,0,0.5682526,0.0708961,0.8045807,0.2126923
			c0.2374115,0.1407242,0.4243164,0.3426781,0.5596771,0.6058617c0.1353455,0.2621078,0.2030182,0.5704079,0.2030182,0.9249001
			v2.4073257h-0.9743195v-2.2601547c0-0.1933594-0.0354462-0.3577156-0.1052704-0.4952164
			c-0.0708923-0.1375008-0.1697235-0.2416992-0.2964783-0.3136711
			C129.1420441,41.7726402,128.9937897,41.7361183,128.8240662,41.7361183z"/>
		<path d="M135.4305115,44.1498871c-0.1697235,0.2374039-0.4039001,0.438282-0.7025299,0.6015625
			c-0.2997131,0.1643562-0.6445312,0.2459946-1.0334015,0.2459946c-0.3899384,0-0.7498016-0.0977516-1.0806732-0.2921867
			c-0.3297729-0.195507-0.5929565-0.4576149-0.7873993-0.7874031c-0.1944275-0.3308563-0.2921906-0.6907196-0.2921906-1.0806618
			c0-0.3888664,0.0977631-0.7498055,0.2921906-1.0795898c0.1944427-0.3308601,0.4576263-0.592968,0.7873993-0.7874031
			c0.3308716-0.195507,0.6907349-0.2921867,1.0806732-0.2921867c0.3888702,0,0.7336884,0.0816383,1.0334015,0.2449226
			c0.2986298,0.1643524,0.5328064,0.3641586,0.7025299,0.6015625l-0.6348572,0.634861
			c-0.1299896-0.1514626-0.2911224-0.2814445-0.4833984-0.3888664c-0.1922913-0.1074219-0.3974609-0.1611328-0.6176758-0.1611328
			c-0.2266693,0-0.4296875,0.0526352-0.6101532,0.1568375c-0.180481,0.1041985-0.3222656,0.249218-0.4232483,0.4361305
			c-0.1020508,0.1858406-0.1525421,0.3974609-0.1525421,0.6348648c0,0.2374001,0.0504913,0.4490242,0.1525421,0.6359367
			c0.1009827,0.1858406,0.2427673,0.3308601,0.4232483,0.4361343c0.1804657,0.1041985,0.3834839,0.1568336,0.6101532,0.1568336
			c0.2202148,0,0.4253845-0.0537109,0.6176758-0.1611328c0.192276-0.1074219,0.3534088-0.2374001,0.4833984-0.3899422
			L135.4305115,44.1498871z"/>
		<path d="M139.9089661,44.2777176c-0.1686554,0.2030296-0.402832,0.3738289-0.7025452,0.5124054
			c-0.2996979,0.1374969-0.6434479,0.2073212-1.0334015,0.2073212c-0.4006805,0-0.771286-0.0977516-1.1096649-0.2921867
			c-0.3383789-0.195507-0.6058502-0.4576149-0.800293-0.7874031c-0.1944275-0.3308563-0.2921906-0.6907196-0.2921906-1.0806618
			c0-0.3888664,0.0977631-0.7498055,0.2921906-1.0795898c0.1944427-0.3308601,0.4576263-0.592968,0.7873993-0.7874031
			c0.3308716-0.195507,0.6907349-0.2921867,1.0806732-0.2921867c0.3834991,0,0.7304688,0.0923805,1.0409088,0.2792969
			c0.3104553,0.1858406,0.554306,0.4372063,0.7294006,0.7541008c0.1740265,0.3158188,0.2621155,0.6627922,0.2621155,1.0409164
			c0,0.0913086-0.004303,0.1750984-0.0128937,0.2545929c-0.0085907,0.0794907-0.0182648,0.1493149-0.029007,0.2116203h-3.0915985
			c0.0332947,0.1643562,0.1020508,0.3125954,0.2073212,0.444725c0.1042023,0.1332054,0.2395477,0.2395515,0.4060516,0.3222656
			c0.1665039,0.0816422,0.3577118,0.1224632,0.5714874,0.1224632c0.2373962,0,0.4554749-0.0494156,0.6531219-0.148243
			c0.1976624-0.0988274,0.3609467-0.2212906,0.490921-0.3684578L139.9089661,44.2777176z M139.1043701,42.4139481
			c-0.0451202-0.1579094-0.112793-0.2975578-0.2030182-0.4189453c-0.0902405-0.1213837-0.2030334-0.2159157-0.3383789-0.2835922
			c-0.1353607-0.0687485-0.294342-0.1020508-0.4748077-0.1020508c-0.1922913,0-0.3598633,0.0333023-0.5038147,0.1020508
			c-0.1439362,0.0676765-0.2610321,0.1622086-0.3512726,0.2835922c-0.0902252,0.1213875-0.1578979,0.2610359-0.2030182,0.4189453
			H139.1043701z"/>
		<path d="M105.8002167,52.7565269c0.1246109,0.1342773,0.2782211,0.2470703,0.4619141,0.3405266
			c0.1836929,0.0934601,0.3824234,0.1407242,0.5972672,0.1407242c0.2030258,0,0.3598633-0.0397453,0.4694366-0.1181641
			c0.1106415-0.0784187,0.1654282-0.1750984,0.1654282-0.2889633c0-0.0644531-0.0311508-0.1203156-0.0934601-0.1665039
			c-0.0623016-0.0461922-0.1407242-0.0859375-0.2363281-0.1213875c-0.0966797-0.03545-0.2266617-0.077343-0.3899384-0.1267586
			c-0.2943344-0.0880852-0.5371094-0.1750984-0.7283249-0.2610359c-0.1922836-0.0859375-0.3587875-0.2116203-0.4995117-0.3781242
			c-0.1417923-0.1654282-0.2126923-0.3792-0.2126923-0.6391602c0-0.2212906,0.0644531-0.4275398,0.1912079-0.6187515
			c0.1267624-0.1912079,0.3093796-0.3426743,0.5457077-0.456543c0.2374039-0.1138649,0.5145493-0.1707993,0.830368-0.1707993
			c0.3330078,0,0.6305695,0.0612297,0.8937531,0.1836929c0.2621078,0.1213837,0.4726562,0.2685547,0.6305618,0.4393539
			l-0.6348572,0.6230469c-0.1020508-0.0891609-0.2298889-0.1632805-0.3856506-0.2234383
			c-0.154686-0.060154-0.3233337-0.0902328-0.5038071-0.0902328c-0.1804657,0-0.3179703,0.0311508-0.410347,0.094532
			c-0.0934601,0.0633774-0.1396484,0.1374969-0.1396484,0.2223625c0,0.0623055,0.0300751,0.1170883,0.0923767,0.1622047
			c0.0623093,0.0440445,0.1417999,0.0837898,0.2374039,0.1181641c0.0956039,0.0343781,0.2255859,0.0751953,0.389946,0.1224632
			c0.2932587,0.0891609,0.5360336,0.1772461,0.7283173,0.2642555c0.1922836,0.0859375,0.3587875,0.2126961,0.4995117,0.3802757
			c0.1407242,0.1665039,0.2116241,0.3813477,0.2116241,0.6434555c0,0.2341805-0.0666046,0.4500999-0.1987305,0.6477547
			c-0.1332092,0.1976547-0.3233414,0.3555679-0.5714874,0.4715805c-0.2492218,0.1170921-0.5424805,0.1761742-0.8808594,0.1761742
			c-0.3566437,0-0.6821289-0.0719719-0.9786148-0.2159195c-0.2964859-0.1439438-0.5349579-0.3211899-0.7154312-0.5317383
			L105.8002167,52.7565269z"/>
		<path d="M111.2218018,54.1272316c-0.389946,0-0.7498093-0.0956078-1.0806656-0.2868156
			c-0.3297882-0.1912117-0.5929718-0.4479523-0.7873993-0.7723656c-0.1944351-0.3233376-0.2921906-0.6767578-0.2921906-1.0581055
			c0-0.3824196,0.0977554-0.7347641,0.2921906-1.0591774c0.1944275-0.3233414,0.4576111-0.5811539,0.7873993-0.7723656
			c0.3308563-0.1912117,0.6907196-0.2868156,1.0806656-0.2868156c0.3888626,0,0.7487259,0.0956039,1.0795898,0.2868156
			c0.3297806,0.1912117,0.5929642,0.4490242,0.7873993,0.7723656c0.1955109,0.3244133,0.2921906,0.6767578,0.2921906,1.0591774
			c0,0.3813477-0.0966797,0.7347679-0.2921906,1.0581055c-0.1944351,0.3244133-0.4576187,0.5811539-0.7873993,0.7723656
			C111.9705276,54.0316238,111.6106644,54.1272316,111.2218018,54.1272316z M111.2218018,53.1958847
			c0.2255859,0,0.4286118-0.0504913,0.6090775-0.1514664c0.1804733-0.100975,0.3222656-0.2416992,0.4243164-0.421093
			c0.1009827-0.1804695,0.1514664-0.3845711,0.1514664-0.6133804s-0.0504837-0.4339828-0.1514664-0.6133766
			c-0.1020508-0.1804695-0.2438431-0.3211937-0.4243164-0.4210968c-0.1804657-0.100975-0.3834915-0.1514626-0.6090775-0.1514626
			c-0.2266617,0-0.4296875,0.0504875-0.6101608,0.1514626c-0.1804657,0.0999031-0.3222656,0.2406273-0.4232407,0.4210968
			c-0.1020508,0.1793938-0.1525345,0.3845673-0.1525345,0.6133766s0.0504837,0.4329109,0.1525345,0.6133804
			c0.100975,0.1793938,0.242775,0.320118,0.4232407,0.421093C110.7921143,53.1453934,110.9951401,53.1958847,111.2218018,53.1958847
			z"/>
		<path d="M115.286644,48.1137543v5.9286118h-0.9743195v-5.9286118H115.286644z"/>
		<path d="M118.0817642,54.1272316c-0.2997131,0-0.5682678-0.0719719-0.8045959-0.2159195
			c-0.2373962-0.1439438-0.4243164-0.350193-0.5596619-0.6187477c-0.1353531-0.2674828-0.2030334-0.5833015-0.2030334-0.9442406
			v-2.4567375h0.9743195v2.3213882c0,0.1976547,0.0343781,0.367382,0.1052704,0.5081024
			c0.0709,0.1407242,0.1697311,0.2481461,0.2964859,0.3222656c0.1267624,0.0730476,0.2750015,0.1095734,0.444725,0.1095734
			c0.1976624,0,0.372757-0.0440445,0.5252991-0.1310577c0.1525345-0.0880852,0.27285-0.2116203,0.3598633-0.3727531
			c0.0880814-0.1611328,0.1310501-0.3458977,0.1310501-0.5553703v-2.2021484h0.9743195v4.1507797h-0.9743195v-0.592968h-0.041893
			c-0.129982,0.1869164-0.3007812,0.3458977-0.5124054,0.4791031
			C118.5855713,54.0606308,118.3470917,54.1272316,118.0817642,54.1272316z"/>
		<path d="M121.130394,50.9088707v-0.9324226h0.4232407c0.1525421,0,0.2610397-0.0343742,0.326561-0.1052704
			c0.0644531-0.0709,0.0977554-0.1912117,0.0977554-0.3598633v-0.8475609h0.8894577v1.3126945h0.9313431v0.9324226h-0.9313431
			v1.6510735c0,0.2094727,0.0472641,0.3673859,0.1439438,0.4748077c0.0956039,0.1074219,0.230957,0.1611328,0.4060516,0.1611328
			c0.1632843,0,0.3330078-0.0397491,0.50811-0.1192398v0.9238281c-0.2084045,0.0837898-0.449028,0.1267586-0.7197266,0.1267586
			c-0.407135,0-0.7272491-0.1256828-0.9614258-0.3770523c-0.2341843-0.2513657-0.3512726-0.6058578-0.3512726-1.0634766v-1.777832
			H121.130394z"/>
		<path d="M124.8149643,48.7905121c0-0.1686516,0.0569305-0.3104477,0.1697235-0.4232407s0.2535172-0.1697273,0.4232483-0.1697273
			c0.1697235,0,0.3104477,0.0569344,0.4232407,0.1697273s0.1697235,0.2545891,0.1697235,0.4232407
			c0,0.1697273-0.0569305,0.3115234-0.1697235,0.4243164s-0.2535172,0.1686516-0.4232407,0.1686516
			c-0.1697311,0-0.3104553-0.0558586-0.4232483-0.1686516S124.8149643,48.9602394,124.8149643,48.7905121z M125.8741455,49.9764481
			v4.065918h-0.9743195v-4.065918H125.8741455z"/>
		<path d="M128.9238434,54.1272316c-0.3899384,0-0.7498016-0.0956078-1.080658-0.2868156
			c-0.3297806-0.1912117-0.5929642-0.4479523-0.7873993-0.7723656c-0.1944351-0.3233376-0.2921906-0.6767578-0.2921906-1.0581055
			c0-0.3824196,0.0977554-0.7347641,0.2921906-1.0591774c0.1944351-0.3233414,0.4576187-0.5811539,0.7873993-0.7723656
			c0.3308563-0.1912117,0.6907196-0.2868156,1.080658-0.2868156c0.3888702,0,0.7487335,0.0956039,1.0795898,0.2868156
			c0.3297882,0.1912117,0.5929718,0.4490242,0.7874146,0.7723656c0.1954956,0.3244133,0.2921753,0.6767578,0.2921753,1.0591774
			c0,0.3813477-0.0966797,0.7347679-0.2921753,1.0581055c-0.1944427,0.3244133-0.4576263,0.5811539-0.7874146,0.7723656
			C129.6725769,54.0316238,129.3127136,54.1272316,128.9238434,54.1272316z M128.9238434,53.1958847
			c0.2255859,0,0.4286194-0.0504913,0.6090851-0.1514664s0.3222656-0.2416992,0.4243164-0.421093
			c0.1009827-0.1804695,0.151474-0.3845711,0.151474-0.6133804s-0.0504913-0.4339828-0.151474-0.6133766
			c-0.1020508-0.1804695-0.2438507-0.3211937-0.4243164-0.4210968c-0.1804657-0.100975-0.3834991-0.1514626-0.6090851-0.1514626
			c-0.2266541,0-0.4296875,0.0504875-0.6101532,0.1514626c-0.1804657,0.0999031-0.322258,0.2406273-0.4232407,0.4210968
			c-0.1020508,0.1793938-0.1525345,0.3845673-0.1525345,0.6133766s0.0504837,0.4329109,0.1525345,0.6133804
			c0.1009827,0.1793938,0.242775,0.320118,0.4232407,0.421093S128.6971893,53.1958847,128.9238434,53.1958847z"/>
		<path d="M133.9630127,50.8659019c-0.1976624,0-0.372757,0.0429688-0.5252991,0.1278343
			c-0.1525421,0.0859375-0.2728424,0.2062492-0.3598633,0.3630829c-0.088089,0.1568375-0.1310577,0.337307-0.1310577,0.5403328
			v2.1452141h-0.9743042v-4.1507797h0.9743042v0.592968h0.0419006c0.1299744-0.1858406,0.3007812-0.3308601,0.5124054-0.4361305
			c0.2116241-0.1042023,0.4500885-0.1568375,0.7154236-0.1568375c0.2997131,0,0.5682678,0.0709,0.8045959,0.2126961
			c0.2373962,0.1407204,0.4243164,0.3426743,0.5596619,0.6058578c0.1353607,0.2621117,0.2030334,0.5704117,0.2030334,0.9249039
			v2.4073219h-0.9743195v-2.2601547c0-0.1933594-0.0354462-0.3577156-0.1052704-0.4952164
			c-0.0709076-0.1374969-0.1697235-0.2416992-0.2964935-0.3136711
			C134.2809753,50.9024277,134.1327362,50.8659019,133.9630127,50.8659019z"/>
		<path d="M137.181366,52.7565269c0.1246185,0.1342773,0.2782288,0.2470703,0.4619141,0.3405266
			c0.1837006,0.0934601,0.382431,0.1407242,0.5972748,0.1407242c0.2030182,0,0.3598633-0.0397453,0.4694214-0.1181641
			c0.1106567-0.0784187,0.1654358-0.1750984,0.1654358-0.2889633c0-0.0644531-0.0311584-0.1203156-0.0934601-0.1665039
			c-0.0623016-0.0461922-0.1407166-0.0859375-0.2363281-0.1213875c-0.0966797-0.03545-0.2266541-0.077343-0.3899384-0.1267586
			c-0.294342-0.0880852-0.5371094-0.1750984-0.7283173-0.2610359c-0.1922913-0.0859375-0.3587952-0.2116203-0.4995117-0.3781242
			c-0.1417999-0.1654282-0.2126923-0.3792-0.2126923-0.6391602c0-0.2212906,0.0644531-0.4275398,0.1912079-0.6187515
			c0.1267548-0.1912079,0.3093719-0.3426743,0.5457001-0.456543c0.2373962-0.1138649,0.5145569-0.1707993,0.830368-0.1707993
			c0.3330078,0,0.6305695,0.0612297,0.8937531,0.1836929c0.2621155,0.1213837,0.4726562,0.2685547,0.6305695,0.4393539
			l-0.6348724,0.6230469c-0.1020508-0.0891609-0.2298737-0.1632805-0.3856354-0.2234383
			c-0.1546936-0.060154-0.323349-0.0902328-0.5038147-0.0902328s-0.3179626,0.0311508-0.4103546,0.094532
			c-0.0934448,0.0633774-0.1396484,0.1374969-0.1396484,0.2223625c0,0.0623055,0.0300903,0.1170883,0.092392,0.1622047
			c0.0623016,0.0440445,0.1417999,0.0837898,0.2373962,0.1181641c0.0956116,0.0343781,0.2255859,0.0751953,0.3899384,0.1224632
			c0.2932739,0.0891609,0.5360413,0.1772461,0.7283325,0.2642555c0.192276,0.0859375,0.3587799,0.2126961,0.4995117,0.3802757
			c0.1407166,0.1665039,0.2116089,0.3813477,0.2116089,0.6434555c0,0.2341805-0.0665894,0.4500999-0.1987305,0.6477547
			c-0.133194,0.1976547-0.3233337,0.3555679-0.5714722,0.4715805c-0.2492218,0.1170921-0.5424805,0.1761742-0.8808594,0.1761742
			c-0.3566437,0-0.6821289-0.0719719-0.9786224-0.2159195c-0.2964783-0.1439438-0.5349579-0.3211899-0.7154236-0.5317383
			L137.181366,52.7565269z"/>
	</g>
</g>
</svg>
