<?xml version="1.0" encoding="UTF-8"?><svg id="b" xmlns="http://www.w3.org/2000/svg" viewBox="0 0 283.46 61.07"><defs><style>.d{fill:#000;stroke-width:0px;}</style></defs><g id="c"><rect class="d" width="61.07" height="61.07"/><path class="d" d="M124.22,30.53v-.39c2.39-1.84,6.5-5.39,6.5-12.86,0-12.05-8.91-17.28-21.18-17.28h-29.09v61.07h30.34c12.27,0,21.35-5.44,21.35-17.28,0-8.46-6.04-12.55-7.92-13.27ZM96.33,11.77h11.38c4.7,0,7.87,1.64,7.87,6.29s-2.92,6.73-7.87,6.73h-11.38v-13.02ZM108.28,49.35h-11.95v-13.25h11.95c4.79,0,7.91,1.64,7.91,6.55,0,4.27-2.87,6.7-7.91,6.7Z"/><polygon class="d" points="195.22 0 176.72 0 158.91 24.06 158.08 24.06 158.08 0 142.2 0 142.2 61.07 158.08 61.07 158.08 36.32 158.91 36.32 179.91 61.07 199.96 61.07 171.91 29.48 195.22 0"/><polygon class="d" points="267.35 0 259.91 42.76 259.27 42.76 249.96 0 233.63 0 224.31 42.76 223.67 42.76 216.22 0 200.02 0 212.62 61.07 232.3 61.07 241.45 20.09 242.1 20.09 251.12 61.07 270.72 61.07 283.46 0 267.35 0"/></g></svg>