<?xml version="1.0" encoding="UTF-8"?>
<svg id="Ebene_2" data-name="Ebene 2" xmlns="http://www.w3.org/2000/svg" viewBox="0 0 155.99 38.35">
  <defs>
    <style>
      .cls-1 {
        fill: #fff;
      }

      .cls-2 {
        fill: #e52521;
      }

      .cls-3 {
        fill: #010101;
      }
    </style>
  </defs>
  <g>
    <path class="cls-3" d="M31.07,6.84c.34,0,.62-.09.84-.26.22-.17.33-.44.34-.81,0-.26-.13-.47-.38-.65-.11-.09-.24-.17-.38-.25s-.29-.16-.44-.24c-.15-.08-.29-.18-.44-.27-.15-.09-.28-.19-.39-.3-.25-.21-.37-.49-.38-.82,0-.43.17-.76.49-1.01.31-.24.7-.36,1.17-.36.13,0,.29.01.48.03.19.03.37.08.55.14l-.08.47c-.26-.13-.57-.2-.95-.2-.13,0-.27.01-.4.04-.13.03-.25.08-.37.16-.1.06-.19.15-.26.27-.07.12-.1.27-.1.44,0,.12.03.24.1.35.07.1.16.2.27.28.12.08.25.17.39.24.14.08.29.16.44.25.31.15.59.34.83.57.12.11.21.24.28.39.06.15.1.32.1.52,0,.52-.19.9-.55,1.13-.35.23-.74.35-1.17.35-.51,0-.91-.08-1.19-.23l.05-.53c.29.21.68.31,1.16.31Z"/>
    <path class="cls-3" d="M36.83,3.89c-.27-.12-.54-.19-.82-.19-.46,0-.81.15-1.06.44-.25.29-.38.68-.38,1.16,0,.45.12.82.38,1.12.25.31.58.48,1.01.48.3,0,.58-.06.86-.17l.04.44c-.31.09-.64.14-.98.13-.62,0-1.07-.21-1.37-.61-.31-.39-.46-.85-.46-1.4,0-.6.18-1.09.53-1.45.34-.36.8-.55,1.37-.56.23,0,.43.02.58.05.08.01.15.03.21.04.05.02.1.04.13.05l-.04.45Z"/>
    <path class="cls-3" d="M38.26,1.58h.47v2.45h.02c.1-.21.26-.39.47-.53.21-.13.45-.2.73-.2.51,0,.86.16,1.04.45.18.3.27.69.26,1.18v2.29h-.47v-2.28c0-.17,0-.33-.03-.48-.02-.15-.06-.27-.13-.38-.12-.24-.37-.36-.75-.37-.41.01-.7.17-.88.47-.18.31-.26.64-.26.99v2.05h-.47V1.58Z"/>
    <path class="cls-3" d="M46.95,7.21h-.57l-1.04-3.31h-.02l-1.04,3.31h-.57l-1.23-3.83h.52l1.01,3.31h.02l1.07-3.31h.57l1.01,3.31h.01l1.06-3.31h.47l-1.26,3.83Z"/>
    <path class="cls-3" d="M52.01,7.09c-.36.14-.73.21-1.11.21-.62,0-1.07-.2-1.34-.58-.27-.37-.4-.84-.4-1.43,0-.6.16-1.08.45-1.45.29-.36.67-.55,1.16-.56.54.01.93.2,1.17.56.24.36.35.81.35,1.34v.24h-2.62c0,.42.11.76.32,1.03.21.29.52.43.94.44.19,0,.38-.03.59-.1.21-.06.37-.12.49-.19v.48ZM51.77,5.02c0-.35-.07-.66-.22-.92-.16-.27-.41-.4-.76-.41-.35.01-.62.15-.82.42-.21.27-.31.57-.31.91h2.1Z"/>
    <path class="cls-3" d="M54.25,2.36h-.47v-.63h.47v.63ZM53.78,3.38h.47v3.83h-.47v-3.83Z"/>
    <path class="cls-3" d="M55.67,6.81l2.3-3.02h-2.21v-.41h2.76v.41l-2.3,3.02h2.3v.41h-2.85v-.4Z"/>
    <path class="cls-3" d="M62.51,7.09c-.36.14-.73.21-1.11.21-.62,0-1.07-.2-1.34-.58-.27-.37-.4-.84-.4-1.43,0-.6.16-1.08.45-1.45.29-.36.67-.55,1.16-.56.54.01.93.2,1.17.56.24.36.35.81.35,1.34v.24h-2.62c0,.42.11.76.32,1.03.21.29.52.43.94.44.19,0,.38-.03.59-.1.21-.06.37-.12.49-.19v.48ZM62.28,5.02c0-.35-.07-.66-.22-.92-.16-.27-.41-.4-.76-.41-.35.01-.62.15-.82.42-.21.27-.31.57-.31.91h2.1Z"/>
    <path class="cls-3" d="M64.28,4.23c0-.35-.01-.64-.03-.86h.47v.74h.01c.09-.23.22-.42.38-.58.16-.16.36-.24.6-.25.12,0,.23.02.33.04v.5c-.1-.03-.22-.05-.35-.05-.19,0-.34.05-.46.14-.12.09-.22.21-.29.37-.07.15-.12.31-.15.49-.04.19-.05.37-.05.54v1.89h-.47v-2.97Z"/>
    <path class="cls-3" d="M67.84,2.36h-.47v-.63h.47v.63ZM67.37,3.38h.47v3.83h-.47v-3.83Z"/>
    <path class="cls-3" d="M70.32,6.89c.23,0,.44-.06.6-.19.16-.11.24-.28.25-.5,0-.23-.1-.4-.28-.53-.18-.12-.39-.24-.64-.34-.11-.05-.23-.11-.33-.17s-.21-.13-.3-.2c-.08-.08-.15-.17-.21-.28-.06-.1-.08-.22-.08-.35,0-.38.14-.65.39-.81.25-.15.53-.23.86-.23.11,0,.25.01.43.03.18.03.35.08.52.14l-.04.41c-.27-.12-.56-.18-.85-.18-.25,0-.44.04-.59.14-.08.04-.13.11-.17.19-.05.08-.07.19-.07.31,0,.08.03.16.08.23.06.06.13.12.22.18.09.05.19.1.31.16.12.05.23.1.34.17.25.1.47.25.65.42.18.18.28.42.29.73,0,.2-.04.37-.12.5-.09.14-.19.25-.32.34-.28.17-.58.25-.89.25-.37,0-.73-.06-1.07-.18l.04-.47c.29.15.62.23,1,.24Z"/>
    <path class="cls-3" d="M75.61,3.89c-.27-.12-.54-.19-.82-.19-.46,0-.81.15-1.06.44-.25.29-.38.68-.38,1.16,0,.45.12.82.38,1.12.25.31.58.48,1.01.48.3,0,.58-.06.86-.17l.04.44c-.31.09-.64.14-.98.13-.62,0-1.07-.21-1.37-.61-.31-.39-.46-.85-.46-1.4,0-.6.18-1.09.53-1.45.34-.36.8-.55,1.37-.56.23,0,.43.02.58.05.08.01.15.03.21.04.05.02.1.04.13.05l-.04.45Z"/>
    <path class="cls-3" d="M77.04,1.58h.47v2.45h.02c.1-.21.26-.39.47-.53.21-.13.45-.2.73-.2.51,0,.86.16,1.04.45.18.3.27.69.26,1.18v2.29h-.47v-2.28c0-.17,0-.33-.03-.48-.02-.15-.06-.27-.13-.38-.12-.24-.37-.36-.75-.37-.41.01-.7.17-.88.47-.18.31-.26.64-.26.99v2.05h-.47V1.58Z"/>
    <path class="cls-3" d="M84.36,7.09c-.36.14-.73.21-1.11.21-.62,0-1.07-.2-1.34-.58-.27-.37-.4-.84-.4-1.43,0-.6.16-1.08.45-1.45.29-.36.67-.55,1.16-.56.54.01.93.2,1.17.56.24.36.35.81.35,1.34v.24h-2.62c0,.42.11.76.32,1.03.21.29.52.43.94.44.19,0,.38-.03.59-.1.21-.06.37-.12.49-.19v.48ZM84.13,5.02c0-.35-.07-.66-.22-.92-.16-.27-.41-.4-.76-.41-.35.01-.62.15-.82.42-.21.27-.31.57-.31.91h2.1Z"/>
    <path class="cls-3" d="M88.63,1.97h2.57v.45h-2.05v1.87h1.94v.45h-1.94v2.02h2.14v.45h-2.66V1.97Z"/>
    <path class="cls-3" d="M93.39,2.36h-.47v-.63h.47v.63ZM92.91,3.38h.47v3.83h-.47v-3.83Z"/>
    <path class="cls-3" d="M98.2,7.21h-.47v-.61h-.01c-.25.47-.65.7-1.19.7-.53,0-.92-.2-1.18-.58-.27-.38-.4-.85-.4-1.43,0-.6.12-1.08.37-1.44.25-.37.65-.56,1.21-.56.19,0,.36.03.5.08.15.06.27.12.36.21.2.18.31.32.34.44h.01V1.58h.47v5.63ZM95.51,5.84c.04.19.1.37.18.53.09.15.21.27.35.37.14.1.32.16.55.16.21,0,.39-.05.54-.16.14-.1.26-.22.35-.38.17-.34.25-.69.25-1.06,0-.18-.02-.36-.05-.56-.04-.18-.1-.35-.2-.51-.09-.16-.21-.29-.35-.39-.15-.1-.33-.14-.54-.14-.23,0-.41.05-.55.14-.15.09-.26.22-.35.38-.08.15-.14.32-.18.51-.04.19-.05.38-.05.57,0,.18.02.36.05.55Z"/>
    <path class="cls-3" d="M102.95,6.89c0,.54-.13,1-.4,1.37-.27.37-.74.56-1.4.57-.25,0-.48-.03-.69-.08-.21-.05-.36-.09-.47-.12l.04-.47c.31.17.69.26,1.13.27.31,0,.55-.06.72-.17.18-.1.31-.24.4-.42.09-.18.15-.39.17-.62.02-.23.03-.49.03-.76h-.02c-.27.51-.66.76-1.16.75-.6-.02-1.02-.23-1.26-.65-.12-.19-.21-.4-.26-.62-.06-.22-.09-.44-.09-.65,0-.6.12-1.08.37-1.44.25-.37.65-.56,1.21-.56.25,0,.47.03.66.08.18.07.36.22.53.44h.01v-.44h.47v3.51ZM100.47,6.32c.17.31.45.47.85.48.43,0,.73-.17.91-.5.17-.31.25-.65.25-1.01,0-.48-.08-.86-.24-1.15-.17-.29-.46-.45-.89-.45-.23,0-.41.05-.55.14-.15.09-.26.22-.35.38-.08.15-.14.32-.18.51-.04.19-.05.38-.05.57,0,.39.08.73.26,1.03Z"/>
    <path class="cls-3" d="M107.25,7.09c-.36.14-.73.21-1.11.21-.62,0-1.07-.2-1.34-.58-.27-.37-.4-.84-.4-1.43,0-.6.16-1.08.45-1.45.29-.36.67-.55,1.16-.56.54.01.93.2,1.17.56.24.36.35.81.35,1.34v.24h-2.62c0,.42.11.76.32,1.03.21.29.52.43.94.44.19,0,.38-.03.59-.1.21-.06.37-.12.49-.19v.48ZM107.01,5.02c0-.35-.07-.66-.22-.92-.16-.27-.41-.4-.76-.41-.35.01-.62.15-.82.42-.21.27-.31.57-.31.91h2.1Z"/>
    <path class="cls-3" d="M109.02,4.28c0-.3-.01-.6-.03-.9h.46v.68h.02c.04-.09.1-.18.16-.27.06-.09.14-.17.23-.25.1-.08.21-.14.35-.19.14-.04.31-.07.5-.07.47,0,.81.15,1.01.42.2.27.29.62.29,1.05v2.45h-.47v-2.33c0-.37-.07-.66-.2-.87-.15-.21-.38-.31-.71-.31-.42.01-.72.16-.89.45-.09.14-.15.28-.19.44-.04.17-.06.33-.06.5v2.12h-.47v-2.93Z"/>
    <path class="cls-3" d="M113.92,3.9c.29-.4.74-.6,1.35-.61.62.01,1.08.21,1.37.61.28.39.42.85.42,1.4s-.14,1-.42,1.39c-.29.4-.75.61-1.37.62-.61,0-1.06-.21-1.35-.62-.29-.39-.44-.85-.44-1.39s.15-1.01.44-1.4ZM114.33,6.42c.21.31.52.47.94.47.42,0,.73-.16.95-.47.21-.29.31-.67.31-1.13s-.1-.84-.31-1.14c-.22-.3-.54-.45-.95-.46-.42,0-.73.16-.94.46-.22.31-.33.69-.33,1.14s.11.83.33,1.13Z"/>
    <path class="cls-3" d="M119.24,6.89c.23,0,.44-.06.6-.19.16-.11.24-.28.25-.5,0-.23-.1-.4-.28-.53-.18-.12-.39-.24-.64-.34-.11-.05-.23-.11-.33-.17s-.21-.13-.3-.2c-.08-.08-.15-.17-.21-.28-.06-.1-.08-.22-.08-.35,0-.38.14-.65.39-.81.25-.15.53-.23.86-.23.11,0,.25.01.43.03.18.03.35.08.52.14l-.04.41c-.27-.12-.56-.18-.85-.18-.25,0-.44.04-.59.14-.08.04-.13.11-.17.19-.05.08-.07.19-.07.31,0,.08.03.16.08.23.06.06.13.12.22.18.09.05.19.1.31.16.12.05.23.1.34.17.25.1.47.25.65.42.18.18.28.42.29.73,0,.2-.04.37-.12.5-.09.14-.19.25-.32.34-.28.17-.58.25-.89.25-.37,0-.73-.06-1.07-.18l.04-.47c.29.15.62.23,1,.24Z"/>
    <path class="cls-3" d="M122.74,6.89c.23,0,.44-.06.6-.19.16-.11.24-.28.25-.5,0-.23-.1-.4-.28-.53-.18-.12-.39-.24-.64-.34-.11-.05-.23-.11-.33-.17s-.21-.13-.3-.2c-.08-.08-.15-.17-.21-.28-.06-.1-.08-.22-.08-.35,0-.38.14-.65.39-.81.25-.15.53-.23.86-.23.11,0,.25.01.43.03.18.03.35.08.52.14l-.04.41c-.27-.12-.56-.18-.85-.18-.25,0-.44.04-.59.14-.08.04-.13.11-.17.19-.05.08-.07.19-.07.31,0,.08.03.16.08.23.06.06.13.12.22.18.09.05.19.1.31.16.12.05.23.1.34.17.25.1.47.25.65.42.18.18.28.42.29.73,0,.2-.04.37-.12.5-.09.14-.19.25-.32.34-.28.17-.58.25-.89.25-.37,0-.73-.06-1.07-.18l.04-.47c.29.15.62.23,1,.24Z"/>
    <path class="cls-3" d="M128.11,7.09c-.36.14-.73.21-1.11.21-.62,0-1.07-.2-1.34-.58-.27-.37-.4-.84-.4-1.43,0-.6.16-1.08.45-1.45.29-.36.67-.55,1.16-.56.54.01.93.2,1.17.56.24.36.35.81.35,1.34v.24h-2.62c0,.42.11.76.32,1.03.21.29.52.43.94.44.19,0,.38-.03.59-.1.21-.06.37-.12.49-.19v.48ZM127.87,5.02c0-.35-.07-.66-.22-.92-.16-.27-.41-.4-.76-.41-.35.01-.62.15-.82.42-.21.27-.31.57-.31.91h2.1Z"/>
    <path class="cls-3" d="M129.88,4.28c0-.3-.01-.6-.03-.9h.46v.68h.02c.04-.09.1-.18.16-.27.06-.09.14-.17.23-.25.1-.08.21-.14.35-.19.14-.04.31-.07.5-.07.47,0,.81.15,1.01.42.2.27.29.62.29,1.05v2.45h-.47v-2.33c0-.37-.07-.66-.2-.87-.15-.21-.38-.31-.71-.31-.42.01-.72.16-.89.45-.09.14-.15.28-.19.44-.04.17-.06.33-.06.5v2.12h-.47v-2.93Z"/>
    <path class="cls-3" d="M135.34,6.89c.23,0,.44-.06.6-.19.16-.11.24-.28.25-.5,0-.23-.1-.4-.28-.53-.18-.12-.39-.24-.64-.34-.11-.05-.23-.11-.33-.17s-.21-.13-.3-.2c-.08-.08-.15-.17-.21-.28-.06-.1-.08-.22-.08-.35,0-.38.14-.65.39-.81.25-.15.53-.23.86-.23.11,0,.25.01.43.03.18.03.35.08.52.14l-.04.41c-.27-.12-.56-.18-.85-.18-.25,0-.44.04-.59.14-.08.04-.13.11-.17.19-.05.08-.07.19-.07.31,0,.08.03.16.08.23.06.06.13.12.22.18.09.05.19.1.31.16.12.05.23.1.34.17.25.1.47.25.65.42.18.18.28.42.29.73,0,.2-.04.37-.12.5-.09.14-.19.25-.32.34-.28.17-.58.25-.89.25-.37,0-.73-.06-1.07-.18l.04-.47c.29.15.62.23,1,.24Z"/>
    <path class="cls-3" d="M140.63,3.89c-.27-.12-.54-.19-.82-.19-.46,0-.81.15-1.06.44-.25.29-.38.68-.38,1.16,0,.45.12.82.38,1.12.25.31.58.48,1.01.48.3,0,.58-.06.86-.17l.04.44c-.31.09-.64.14-.98.13-.62,0-1.07-.21-1.37-.61-.31-.39-.46-.85-.46-1.4,0-.6.18-1.09.53-1.45.34-.36.8-.55,1.37-.56.23,0,.43.02.58.05.08.01.15.03.21.04.05.02.1.04.13.05l-.04.45Z"/>
    <path class="cls-3" d="M142.06,1.58h.47v2.45h.02c.1-.21.26-.39.47-.53.21-.13.45-.2.73-.2.51,0,.86.16,1.04.45.18.3.27.69.26,1.18v2.29h-.47v-2.28c0-.17,0-.33-.03-.48-.02-.15-.06-.27-.13-.38-.12-.24-.37-.36-.75-.37-.41.01-.7.17-.88.47-.18.31-.26.64-.26.99v2.05h-.47V1.58Z"/>
    <path class="cls-3" d="M149.01,6.59h-.01c-.11.23-.28.4-.5.52-.22.12-.46.18-.71.19-.26,0-.48-.05-.65-.13-.17-.08-.3-.17-.39-.29-.16-.25-.24-.47-.23-.67,0-.32.08-.57.23-.76.15-.19.34-.32.58-.4.24-.08.49-.14.77-.17.27-.02.53-.02.78-.02h.09v-.2c.02-.66-.27-.98-.87-.98-.4,0-.77.1-1.13.31v-.46c.36-.17.73-.25,1.13-.26.91,0,1.35.47,1.34,1.43v1.69c0,.29,0,.56.04.8h-.47v-.62ZM148.97,5.28h-.13c-.21,0-.41,0-.62.01-.21.02-.41.06-.58.13-.18.06-.32.15-.42.28-.12.12-.17.29-.17.5,0,.25.08.42.24.52.15.11.34.17.56.17.28,0,.49-.06.65-.17.15-.1.27-.23.34-.38.08-.15.12-.31.13-.46,0-.16.01-.28.01-.38v-.23Z"/>
    <path class="cls-3" d="M151.47,3.78h-.77v-.41h.77v-.28c0-.21.01-.41.03-.6,0-.19.05-.36.11-.51.07-.15.17-.28.31-.37.14-.09.32-.13.56-.13.08,0,.16,0,.25,0,.08.02.15.04.2.07l-.03.4c-.1-.05-.23-.07-.38-.07-.16,0-.27.03-.35.1-.08.08-.14.18-.17.29-.03.12-.04.24-.04.37,0,.14,0,.27,0,.39v.33h.86v.41h-.86v3.42h-.47v-3.42Z"/>
    <path class="cls-3" d="M155.88,3.78h-.87v2.48c0,.17.04.32.12.44.08.13.21.19.39.19.17,0,.31-.03.43-.09l.03.39c-.05.02-.13.04-.23.07-.11.02-.22.04-.35.04-.21,0-.37-.03-.49-.1-.12-.07-.2-.16-.26-.28-.05-.12-.08-.26-.1-.41-.01-.15-.02-.31-.02-.49v-2.24h-.75v-.41h.75v-.92l.47-.17v1.09h.87v.41Z"/>
    <path class="cls-3" d="M33.03,12.72c-.21-.02-.42-.04-.61-.04-.68.01-1.2.22-1.57.64-.37.42-.56.96-.56,1.62s.18,1.21.55,1.62c.36.42.89.63,1.58.64.18,0,.38-.02.61-.05.22-.03.41-.09.56-.17l.03.45c-.15.08-.35.14-.58.17-.24.03-.44.05-.62.05-.83,0-1.48-.26-1.94-.75-.47-.49-.71-1.14-.71-1.96,0-.81.24-1.46.71-1.96.47-.49,1.11-.74,1.93-.75.17,0,.38.01.62.04.24.03.43.08.58.16l-.03.48c-.17-.09-.36-.15-.56-.19Z"/>
    <path class="cls-3" d="M35.49,14.25c.29-.4.74-.6,1.35-.61.62.01,1.08.21,1.37.61.28.39.42.85.42,1.4s-.14,1-.42,1.39c-.29.4-.75.61-1.37.62-.61,0-1.06-.21-1.35-.62-.29-.39-.44-.85-.44-1.39s.15-1.01.44-1.4ZM35.9,16.77c.21.31.52.47.94.47.42,0,.73-.16.95-.47.21-.29.31-.67.31-1.13s-.1-.84-.31-1.14c-.22-.3-.54-.45-.95-.46-.42,0-.73.16-.94.46-.22.31-.33.69-.33,1.14s.11.83.33,1.13Z"/>
    <path class="cls-3" d="M40.1,14.63c0-.3-.01-.6-.03-.9h.46v.68h.02c.04-.09.1-.18.16-.27.06-.09.14-.17.23-.25.1-.08.21-.14.35-.19.14-.04.31-.07.5-.07.47,0,.81.15,1.01.42.2.27.29.62.29,1.05v2.45h-.47v-2.33c0-.37-.07-.66-.2-.87-.15-.21-.38-.31-.71-.31-.42.01-.72.16-.89.45-.09.14-.15.28-.19.44-.04.17-.06.33-.06.5v2.12h-.47v-2.93Z"/>
    <path class="cls-3" d="M45.18,14.13h-.77v-.41h.77v-.28c0-.21,0-.41.03-.6.01-.19.05-.36.11-.51.06-.15.17-.28.31-.37.14-.09.32-.13.56-.13.08,0,.16,0,.25,0,.08.02.15.04.19.07l-.03.4c-.1-.05-.23-.07-.38-.07-.15,0-.27.03-.35.1-.08.08-.14.18-.17.29-.03.12-.05.24-.05.37,0,.14,0,.27,0,.39v.33h.86v.41h-.86v3.42h-.47v-3.42Z"/>
    <path class="cls-3" d="M50.51,17.44c-.36.14-.73.21-1.11.21-.62,0-1.07-.2-1.34-.58-.27-.37-.4-.84-.4-1.43,0-.6.16-1.08.45-1.45.29-.36.67-.55,1.16-.56.54.01.93.2,1.17.56.24.36.35.81.35,1.34v.24h-2.62c0,.42.11.76.32,1.03.21.29.52.43.94.44.19,0,.38-.03.59-.1.21-.06.37-.12.49-.19v.48ZM50.28,15.37c0-.35-.07-.66-.22-.92-.16-.27-.41-.4-.76-.41-.35.01-.62.15-.82.42-.21.27-.31.57-.31.91h2.1ZM49.51,12.23h.59l-.95,1.08h-.35l.7-1.08Z"/>
    <path class="cls-3" d="M55.31,17.56h-.47v-.61h-.01c-.25.47-.65.7-1.19.7-.53,0-.92-.2-1.18-.58-.27-.38-.4-.85-.4-1.43,0-.6.12-1.08.37-1.44.25-.37.65-.56,1.21-.56.19,0,.36.03.5.08.15.06.27.12.36.21.2.18.31.32.34.44h.01v-2.45h.47v5.63ZM52.63,16.19c.04.19.1.37.18.53.09.15.21.27.35.37.14.1.32.16.55.16.21,0,.39-.05.54-.16.14-.1.26-.22.35-.38.17-.34.25-.69.25-1.06,0-.18-.02-.36-.05-.56-.04-.18-.1-.35-.2-.51-.09-.16-.21-.29-.35-.39-.15-.1-.33-.14-.54-.14-.23,0-.41.05-.55.14-.15.09-.26.22-.35.38-.08.15-.14.32-.18.51-.04.19-.05.38-.05.57,0,.18.02.36.05.55Z"/>
    <path class="cls-3" d="M59.61,17.44c-.36.14-.73.21-1.11.21-.62,0-1.07-.2-1.34-.58-.27-.37-.4-.84-.4-1.43,0-.6.16-1.08.45-1.45.29-.36.67-.55,1.16-.56.54.01.93.2,1.17.56.24.36.35.81.35,1.34v.24h-2.62c0,.42.11.76.32,1.03.21.29.52.43.94.44.19,0,.38-.03.59-.1.21-.06.37-.12.49-.19v.48ZM59.37,15.37c0-.35-.07-.66-.22-.92-.16-.27-.41-.4-.76-.41-.35.01-.62.15-.82.42-.21.27-.31.57-.31.91h2.1ZM58.61,12.23h.59l-.95,1.08h-.35l.7-1.08Z"/>
    <path class="cls-3" d="M61.38,14.58c0-.35-.01-.64-.03-.86h.47v.74h.01c.09-.23.22-.42.38-.58.16-.16.36-.24.6-.25.12,0,.23.02.33.04v.5c-.1-.03-.22-.05-.35-.05-.19,0-.34.05-.46.14-.12.09-.22.21-.29.37-.07.15-.12.31-.15.49-.04.19-.05.37-.05.54v1.89h-.47v-2.97Z"/>
    <path class="cls-3" d="M66.66,16.94h-.02c-.11.23-.28.4-.5.52s-.46.18-.71.19c-.27,0-.48-.05-.65-.13-.17-.08-.3-.17-.39-.29-.16-.25-.24-.47-.23-.67,0-.32.08-.57.23-.76.15-.19.34-.32.58-.4.24-.08.49-.14.77-.17.27-.02.53-.02.78-.02h.09v-.2c.01-.66-.28-.98-.87-.98-.4,0-.77.1-1.13.31v-.46c.35-.17.73-.25,1.13-.26.91,0,1.35.47,1.34,1.43v1.69c0,.29,0,.56.04.8h-.47v-.62ZM66.62,15.63h-.14c-.21,0-.41,0-.62.01-.22.02-.41.06-.59.13-.18.06-.31.15-.42.28-.12.12-.17.29-.17.5,0,.25.08.42.24.52.15.11.33.17.56.17.27,0,.49-.06.65-.17.15-.1.27-.23.34-.38.07-.15.12-.31.13-.46,0-.16.02-.28.02-.38v-.23Z"/>
    <path class="cls-3" d="M70.45,14.13h-.87v2.48c0,.17.04.32.12.44.08.13.21.19.39.19.17,0,.32-.03.44-.09l.03.39c-.06.02-.13.04-.23.07-.1.02-.22.04-.35.04-.21,0-.37-.03-.49-.1-.12-.07-.2-.16-.26-.28-.05-.12-.08-.26-.1-.41-.02-.15-.02-.31-.02-.49v-2.24h-.75v-.41h.75v-.92l.47-.17v1.09h.87v.41Z"/>
    <path class="cls-3" d="M72.35,12.71h-.47v-.63h.47v.63ZM71.88,13.73h.47v3.83h-.47v-3.83Z"/>
    <path class="cls-3" d="M74.28,14.25c.29-.4.74-.6,1.35-.61.62.01,1.08.21,1.37.61.28.39.42.85.42,1.4s-.14,1-.42,1.39c-.29.4-.75.61-1.37.62-.61,0-1.06-.21-1.35-.62-.29-.39-.44-.85-.44-1.39s.15-1.01.44-1.4ZM74.69,16.77c.21.31.52.47.94.47.42,0,.73-.16.95-.47.21-.29.31-.67.31-1.13s-.1-.84-.31-1.14c-.22-.3-.54-.45-.95-.46-.42,0-.73.16-.94.46-.22.31-.33.69-.33,1.14s.11.83.33,1.13Z"/>
    <path class="cls-3" d="M78.89,14.63c0-.3-.01-.6-.03-.9h.46v.68h.02c.04-.09.1-.18.16-.27.06-.09.14-.17.23-.25.1-.08.21-.14.35-.19.14-.04.31-.07.5-.07.47,0,.81.15,1.01.42.2.27.29.62.29,1.05v2.45h-.47v-2.33c0-.37-.07-.66-.2-.87-.15-.21-.38-.31-.71-.31-.42.01-.72.16-.89.45-.09.14-.15.28-.19.44-.04.17-.06.33-.06.5v2.12h-.47v-2.93Z"/>
    <path class="cls-3" d="M86.95,17.24c.23,0,.44-.06.6-.19.16-.11.24-.28.25-.5,0-.23-.1-.4-.28-.53-.18-.12-.39-.24-.64-.34-.11-.05-.23-.11-.33-.17s-.21-.13-.3-.2c-.08-.08-.15-.17-.21-.28-.06-.1-.08-.22-.08-.35,0-.38.14-.65.39-.81.25-.15.53-.23.86-.23.11,0,.25.01.43.03.18.03.35.08.52.14l-.04.41c-.27-.12-.56-.18-.85-.18-.25,0-.44.04-.59.14-.08.04-.13.11-.17.19-.05.08-.07.19-.07.31,0,.08.03.16.08.23.06.06.13.12.22.18.09.05.19.1.31.16.12.05.23.1.34.17.25.1.47.25.65.42.18.18.28.42.29.73,0,.2-.04.37-.12.5-.09.14-.19.25-.32.34-.28.17-.58.25-.89.25-.37,0-.73-.06-1.07-.18l.04-.47c.29.15.62.23,1,.24Z"/>
    <path class="cls-3" d="M92.73,16.66c0,.29,0,.59.03.9h-.46v-.68h-.01c-.04.08-.08.17-.14.25-.06.09-.14.18-.23.26-.09.07-.21.13-.35.18-.14.06-.31.08-.51.08-.47,0-.8-.15-1.01-.42-.21-.27-.31-.62-.3-1.05v-2.45h.47v2.33c0,.37.07.65.22.86.14.22.37.33.69.33.21,0,.4-.05.55-.14.15-.08.26-.2.34-.33.09-.14.15-.29.19-.45.03-.16.05-.32.05-.48v-2.12h.47v2.93Z"/>
    <path class="cls-3" d="M94.98,12.71h-.47v-.63h.47v.63ZM94.51,13.73h.47v3.83h-.47v-3.83Z"/>
    <path class="cls-3" d="M97.46,17.24c.23,0,.44-.06.6-.19.16-.11.24-.28.25-.5,0-.23-.1-.4-.28-.53-.18-.12-.39-.24-.64-.34-.11-.05-.23-.11-.33-.17s-.21-.13-.3-.2c-.08-.08-.15-.17-.21-.28-.06-.1-.08-.22-.08-.35,0-.38.14-.65.39-.81.25-.15.53-.23.86-.23.11,0,.25.01.43.03.18.03.35.08.52.14l-.04.41c-.27-.12-.56-.18-.85-.18-.25,0-.44.04-.59.14-.08.04-.13.11-.17.19-.05.08-.07.19-.07.31,0,.08.03.16.08.23.06.06.13.12.22.18.09.05.19.1.31.16.12.05.23.1.34.17.25.1.47.25.65.42.18.18.28.42.29.73,0,.2-.04.37-.12.5-.09.14-.19.25-.32.34-.28.17-.58.25-.89.25-.37,0-.73-.06-1.07-.18l.04-.47c.29.15.62.23,1,.24Z"/>
    <path class="cls-3" d="M100.97,17.24c.23,0,.44-.06.6-.19.16-.11.24-.28.25-.5,0-.23-.1-.4-.28-.53-.18-.12-.39-.24-.64-.34-.11-.05-.23-.11-.33-.17s-.21-.13-.3-.2c-.08-.08-.15-.17-.21-.28-.06-.1-.08-.22-.08-.35,0-.38.14-.65.39-.81.25-.15.53-.23.86-.23.11,0,.25.01.43.03.18.03.35.08.52.14l-.04.41c-.27-.12-.56-.18-.85-.18-.25,0-.44.04-.59.14-.08.04-.13.11-.17.19-.05.08-.07.19-.07.31,0,.08.03.16.08.23.06.06.13.12.22.18.09.05.19.1.31.16.12.05.23.1.34.17.25.1.47.25.65.42.18.18.28.42.29.73,0,.2-.04.37-.12.5-.09.14-.19.25-.32.34-.28.17-.58.25-.89.25-.37,0-.73-.06-1.07-.18l.04-.47c.29.15.62.23,1,.24Z"/>
    <path class="cls-3" d="M106.33,17.44c-.36.14-.73.21-1.11.21-.62,0-1.07-.2-1.34-.58-.27-.37-.4-.84-.4-1.43,0-.6.16-1.08.45-1.45.29-.36.67-.55,1.16-.56.54.01.93.2,1.17.56.24.36.35.81.35,1.34v.24h-2.62c0,.42.11.76.32,1.03.21.29.52.43.94.44.19,0,.38-.03.59-.1.21-.06.37-.12.49-.19v.48ZM106.1,15.37c0-.35-.07-.66-.22-.92-.16-.27-.41-.4-.76-.41-.35.01-.62.15-.82.42-.21.27-.31.57-.31.91h2.1Z"/>
    <path class="cls-3" d="M33.03,23.07c-.21-.02-.42-.04-.61-.04-.68.01-1.2.22-1.57.64-.37.42-.56.96-.56,1.62s.18,1.21.55,1.62c.36.42.89.63,1.58.64.18,0,.38-.02.61-.05.22-.03.41-.09.56-.17l.03.45c-.15.08-.35.14-.58.17-.24.03-.44.05-.62.05-.83,0-1.48-.26-1.94-.75-.47-.49-.71-1.14-.71-1.96,0-.81.24-1.46.71-1.96.47-.49,1.11-.74,1.93-.75.17,0,.38.01.62.04.24.03.43.08.58.16l-.03.48c-.17-.09-.36-.15-.56-.19Z"/>
    <path class="cls-3" d="M35.49,24.6c.29-.4.74-.6,1.35-.61.62.01,1.08.21,1.37.61.28.39.42.85.42,1.4s-.14,1-.42,1.39c-.29.4-.75.61-1.37.62-.61,0-1.06-.21-1.35-.62-.29-.39-.44-.85-.44-1.39s.15-1.01.44-1.4ZM35.9,27.12c.21.31.52.47.94.47.42,0,.73-.16.95-.47.21-.29.31-.67.31-1.13s-.1-.84-.31-1.14c-.22-.3-.54-.45-.95-.46-.42,0-.73.16-.94.46-.22.31-.33.69-.33,1.14s.11.83.33,1.13Z"/>
    <path class="cls-3" d="M40.1,24.98c0-.3-.01-.6-.03-.9h.46v.68h.02c.04-.09.1-.18.16-.27.06-.09.14-.17.23-.25.1-.08.21-.14.35-.19.14-.04.31-.07.5-.07.47,0,.81.15,1.01.42.2.27.29.62.29,1.05v2.45h-.47v-2.33c0-.37-.07-.66-.2-.87-.15-.21-.38-.31-.71-.31-.42.01-.72.16-.89.45-.09.14-.15.28-.19.44-.04.17-.06.33-.06.5v2.12h-.47v-2.93Z"/>
    <path class="cls-3" d="M45.18,24.48h-.77v-.41h.77v-.28c0-.21,0-.41.03-.6.01-.19.05-.36.11-.51.06-.15.17-.28.31-.37.14-.09.32-.13.56-.13.08,0,.16,0,.25,0,.08.02.15.04.19.07l-.03.4c-.1-.05-.23-.07-.38-.07-.15,0-.27.03-.35.1-.08.08-.14.18-.17.29-.03.12-.05.24-.05.37,0,.14,0,.27,0,.39v.33h.86v.41h-.86v3.42h-.47v-3.42Z"/>
    <path class="cls-3" d="M50.51,27.79c-.36.14-.73.21-1.11.21-.62,0-1.07-.2-1.34-.58-.27-.37-.4-.84-.4-1.43,0-.6.16-1.08.45-1.45.29-.36.67-.55,1.16-.56.54.01.93.2,1.17.56.24.36.35.81.35,1.34v.24h-2.62c0,.42.11.76.32,1.03.21.29.52.43.94.44.19,0,.38-.03.59-.1.21-.06.37-.12.49-.19v.48ZM50.28,25.72c0-.35-.07-.66-.22-.92-.16-.27-.41-.4-.76-.41-.35.01-.62.15-.82.42-.21.27-.31.57-.31.91h2.1Z"/>
    <path class="cls-3" d="M55.31,27.91h-.47v-.61h-.01c-.25.47-.65.7-1.19.7-.53,0-.92-.2-1.18-.58-.27-.38-.4-.85-.4-1.43,0-.6.12-1.08.37-1.44.25-.37.65-.56,1.21-.56.19,0,.36.03.5.08.15.06.27.12.36.21.2.18.31.32.34.44h.01v-2.45h.47v5.63ZM52.63,26.54c.04.19.1.37.18.53.09.15.21.27.35.37.14.1.32.16.55.16.21,0,.39-.05.54-.16.14-.1.26-.22.35-.38.17-.34.25-.69.25-1.06,0-.18-.02-.36-.05-.56-.04-.18-.1-.35-.2-.51-.09-.16-.21-.29-.35-.39-.15-.1-.33-.14-.54-.14-.23,0-.41.05-.55.14-.15.09-.26.22-.35.38-.08.15-.14.32-.18.51-.04.19-.05.38-.05.57,0,.18.02.36.05.55Z"/>
    <path class="cls-3" d="M59.61,27.79c-.36.14-.73.21-1.11.21-.62,0-1.07-.2-1.34-.58-.27-.37-.4-.84-.4-1.43,0-.6.16-1.08.45-1.45.29-.36.67-.55,1.16-.56.54.01.93.2,1.17.56.24.36.35.81.35,1.34v.24h-2.62c0,.42.11.76.32,1.03.21.29.52.43.94.44.19,0,.38-.03.59-.1.21-.06.37-.12.49-.19v.48ZM59.37,25.72c0-.35-.07-.66-.22-.92-.16-.27-.41-.4-.76-.41-.35.01-.62.15-.82.42-.21.27-.31.57-.31.91h2.1Z"/>
    <path class="cls-3" d="M61.38,24.93c0-.35-.01-.64-.03-.86h.47v.74h.01c.09-.23.22-.42.38-.58.16-.16.36-.24.6-.25.12,0,.23.02.33.04v.5c-.1-.03-.22-.05-.35-.05-.19,0-.34.05-.46.14-.12.09-.22.21-.29.37-.07.15-.12.31-.15.49-.04.19-.05.37-.05.54v1.89h-.47v-2.97Z"/>
    <path class="cls-3" d="M66.66,27.29h-.02c-.11.23-.28.4-.5.52s-.46.18-.71.19c-.27,0-.48-.05-.65-.13-.17-.08-.3-.17-.39-.29-.16-.25-.24-.47-.23-.67,0-.32.08-.57.23-.76.15-.19.34-.32.58-.4.24-.08.49-.14.77-.17.27-.02.53-.02.78-.02h.09v-.2c.01-.66-.28-.98-.87-.98-.4,0-.77.1-1.13.31v-.46c.35-.17.73-.25,1.13-.26.91,0,1.35.47,1.34,1.43v1.69c0,.29,0,.56.04.8h-.47v-.62ZM66.62,25.98h-.14c-.21,0-.41,0-.62.01-.22.02-.41.06-.59.13-.18.06-.31.15-.42.28-.12.12-.17.29-.17.5,0,.25.08.42.24.52.15.11.33.17.56.17.27,0,.49-.06.65-.17.15-.1.27-.23.34-.38.07-.15.12-.31.13-.46,0-.16.02-.28.02-.38v-.23Z"/>
    <path class="cls-3" d="M68.45,27.51l2.3-3.02h-2.21v-.41h2.76v.41l-2.3,3.02h2.3v.41h-2.85v-.4Z"/>
    <path class="cls-3" d="M73.19,23.06h-.47v-.63h.47v.63ZM72.72,24.08h.47v3.83h-.47v-3.83Z"/>
    <path class="cls-3" d="M75.11,24.6c.29-.4.74-.6,1.35-.61.62.01,1.08.21,1.37.61.28.39.42.85.42,1.4s-.14,1-.42,1.39c-.29.4-.75.61-1.37.62-.61,0-1.06-.21-1.35-.62-.29-.39-.44-.85-.44-1.39s.15-1.01.44-1.4ZM75.52,27.12c.21.31.52.47.94.47.42,0,.73-.16.95-.47.21-.29.31-.67.31-1.13s-.1-.84-.31-1.14c-.22-.3-.54-.45-.95-.46-.42,0-.73.16-.94.46-.22.31-.33.69-.33,1.14s.11.83.33,1.13Z"/>
    <path class="cls-3" d="M79.72,24.98c0-.3-.01-.6-.03-.9h.46v.68h.02c.04-.09.1-.18.16-.27.06-.09.14-.17.23-.25.1-.08.21-.14.35-.19.14-.04.31-.07.5-.07.47,0,.81.15,1.01.42.2.27.29.62.29,1.05v2.45h-.47v-2.33c0-.37-.07-.66-.2-.87-.15-.21-.38-.31-.71-.31-.42.01-.72.16-.89.45-.09.14-.15.28-.19.44-.04.17-.06.33-.06.5v2.12h-.47v-2.93Z"/>
    <path class="cls-3" d="M87.05,27.79c-.36.14-.73.21-1.11.21-.62,0-1.07-.2-1.34-.58-.27-.37-.4-.84-.4-1.43,0-.6.16-1.08.45-1.45.29-.36.67-.55,1.16-.56.54.01.93.2,1.17.56.24.36.35.81.35,1.34v.24h-2.62c0,.42.11.76.32,1.03.21.29.52.43.94.44.19,0,.38-.03.59-.1.21-.06.37-.12.49-.19v.48ZM86.81,25.72c0-.35-.07-.66-.22-.92-.16-.27-.41-.4-.76-.41-.35.01-.62.15-.82.42-.21.27-.31.57-.31.91h2.1Z"/>
    <path class="cls-3" d="M92.48,27.55c.34,0,.62-.09.84-.26.22-.17.33-.44.34-.81,0-.26-.13-.47-.38-.65-.11-.09-.24-.17-.38-.25s-.29-.16-.44-.24c-.15-.08-.29-.18-.44-.27-.15-.09-.28-.19-.39-.3-.25-.21-.37-.49-.38-.82,0-.43.17-.76.49-1.01.31-.24.7-.36,1.17-.36.13,0,.29.01.48.03.19.03.37.08.55.14l-.08.47c-.26-.13-.57-.2-.95-.2-.13,0-.27.01-.4.04-.13.03-.25.08-.37.16-.1.06-.19.15-.26.27-.07.12-.1.27-.1.44,0,.12.03.24.1.35.07.1.16.2.27.28.12.08.25.17.39.24.14.08.29.16.44.25.31.15.59.34.83.57.12.11.21.24.28.39.06.15.1.32.1.52,0,.52-.19.9-.55,1.13-.35.23-.74.35-1.17.35-.51,0-.91-.08-1.19-.23l.05-.53c.29.21.68.31,1.16.31Z"/>
    <path class="cls-3" d="M97.08,27.91h-.56l-1.3-3.83h.52l1.06,3.31h.01l1.11-3.31h.5l-1.34,3.83Z"/>
    <path class="cls-3" d="M100.14,23.06h-.47v-.63h.47v.63ZM99.67,24.08h.47v3.83h-.47v-3.83Z"/>
    <path class="cls-3" d="M101.57,27.51l2.3-3.02h-2.21v-.41h2.76v.41l-2.3,3.02h2.3v.41h-2.85v-.4Z"/>
    <path class="cls-3" d="M105.48,27.51l2.3-3.02h-2.21v-.41h2.76v.41l-2.3,3.02h2.3v.41h-2.85v-.4Z"/>
    <path class="cls-3" d="M112.32,27.79c-.36.14-.73.21-1.11.21-.62,0-1.07-.2-1.34-.58-.27-.37-.4-.84-.4-1.43,0-.6.16-1.08.45-1.45.29-.36.67-.55,1.16-.56.54.01.93.2,1.17.56.24.36.35.81.35,1.34v.24h-2.62c0,.42.11.76.32,1.03.21.29.52.43.94.44.19,0,.38-.03.59-.1.21-.06.37-.12.49-.19v.48ZM112.09,25.72c0-.35-.07-.66-.22-.92-.16-.27-.41-.4-.76-.41-.35.01-.62.15-.82.42-.21.27-.31.57-.31.91h2.1Z"/>
    <path class="cls-3" d="M114.09,24.93c0-.35-.01-.64-.03-.86h.47v.74h.01c.09-.23.22-.42.38-.58.16-.16.36-.24.6-.25.12,0,.23.02.33.04v.5c-.1-.03-.22-.05-.35-.05-.19,0-.34.05-.46.14-.12.09-.22.21-.29.37-.07.15-.12.31-.15.49-.04.19-.05.37-.05.54v1.89h-.47v-2.97Z"/>
    <path class="cls-3" d="M119.37,27.29h-.02c-.11.23-.28.4-.5.52s-.46.18-.71.19c-.27,0-.48-.05-.65-.13-.17-.08-.3-.17-.39-.29-.16-.25-.24-.47-.23-.67,0-.32.08-.57.23-.76.15-.19.34-.32.58-.4.24-.08.49-.14.77-.17.27-.02.53-.02.78-.02h.09v-.2c.01-.66-.28-.98-.87-.98-.4,0-.77.1-1.13.31v-.46c.35-.17.73-.25,1.13-.26.91,0,1.35.47,1.34,1.43v1.69c0,.29,0,.56.04.8h-.47v-.62ZM119.33,25.98h-.14c-.21,0-.41,0-.62.01-.22.02-.41.06-.59.13-.18.06-.31.15-.42.28-.12.12-.17.29-.17.5,0,.25.08.42.24.52.15.11.33.17.56.17.27,0,.49-.06.65-.17.15-.1.27-.23.34-.38.07-.15.12-.31.13-.46,0-.16.02-.28.02-.38v-.23Z"/>
    <path class="cls-3" d="M33.03,33.42c-.21-.02-.42-.04-.61-.04-.68.01-1.2.22-1.57.64-.37.42-.56.96-.56,1.62s.18,1.21.55,1.62c.36.42.89.63,1.58.64.18,0,.38-.02.61-.05.22-.03.41-.09.56-.17l.03.45c-.15.08-.35.14-.58.17-.24.03-.44.05-.62.05-.83,0-1.48-.26-1.94-.75-.47-.49-.71-1.14-.71-1.96,0-.81.24-1.46.71-1.96.47-.49,1.11-.74,1.93-.75.17,0,.38.01.62.04.24.03.43.08.58.16l-.03.48c-.17-.09-.36-.15-.56-.19Z"/>
    <path class="cls-3" d="M35.49,34.95c.29-.4.74-.6,1.35-.61.62.01,1.08.21,1.37.61.28.39.42.85.42,1.4s-.14,1-.42,1.39c-.29.4-.75.61-1.37.62-.61,0-1.06-.21-1.35-.62-.29-.39-.44-.85-.44-1.39s.15-1.01.44-1.4ZM35.9,37.47c.21.31.52.47.94.47.42,0,.73-.16.95-.47.21-.29.31-.67.31-1.13s-.1-.84-.31-1.14c-.22-.3-.54-.45-.95-.46-.42,0-.73.16-.94.46-.22.31-.33.69-.33,1.14s.11.83.33,1.13Z"/>
    <path class="cls-3" d="M40.1,35.33c0-.3-.01-.6-.03-.9h.46v.68h.02c.04-.09.1-.18.16-.27.06-.09.14-.17.23-.25.1-.08.21-.14.35-.19.14-.04.31-.07.5-.07.47,0,.81.15,1.01.42.2.27.29.62.29,1.05v2.45h-.47v-2.33c0-.37-.07-.66-.2-.87-.15-.21-.38-.31-.71-.31-.42.01-.72.16-.89.45-.09.14-.15.28-.19.44-.04.17-.06.33-.06.5v2.12h-.47v-2.93Z"/>
    <path class="cls-3" d="M45.18,34.83h-.77v-.41h.77v-.28c0-.21,0-.41.03-.6.01-.19.05-.36.11-.51.06-.15.17-.28.31-.37.14-.09.32-.13.56-.13.08,0,.16,0,.25,0,.08.02.15.04.19.07l-.03.4c-.1-.05-.23-.07-.38-.07-.15,0-.27.03-.35.1-.08.08-.14.18-.17.29-.03.12-.05.24-.05.37,0,.14,0,.27,0,.39v.33h.86v.41h-.86v3.42h-.47v-3.42Z"/>
    <path class="cls-3" d="M50.51,38.14c-.36.14-.73.21-1.11.21-.62,0-1.07-.2-1.34-.58-.27-.37-.4-.84-.4-1.43,0-.6.16-1.08.45-1.45.29-.36.67-.55,1.16-.56.54.01.93.2,1.17.56.24.36.35.81.35,1.34v.24h-2.62c0,.42.11.76.32,1.03.21.29.52.43.94.44.19,0,.38-.03.59-.1.21-.06.37-.12.49-.19v.48ZM50.28,36.07c0-.35-.07-.66-.22-.92-.16-.27-.41-.4-.76-.41-.35.01-.62.15-.82.42-.21.27-.31.57-.31.91h2.1Z"/>
    <path class="cls-3" d="M55.31,38.26h-.47v-.61h-.01c-.25.47-.65.7-1.19.7-.53,0-.92-.2-1.18-.58-.27-.38-.4-.85-.4-1.43,0-.6.12-1.08.37-1.44.25-.37.65-.56,1.21-.56.19,0,.36.03.5.08.15.06.27.12.36.21.2.18.31.32.34.44h.01v-2.45h.47v5.63ZM52.63,36.89c.04.19.1.37.18.53.09.15.21.27.35.37.14.1.32.16.55.16.21,0,.39-.05.54-.16.14-.1.26-.22.35-.38.17-.34.25-.69.25-1.06,0-.18-.02-.36-.05-.56-.04-.18-.1-.35-.2-.51-.09-.16-.21-.29-.35-.39-.15-.1-.33-.14-.54-.14-.23,0-.41.05-.55.14-.15.09-.26.22-.35.38-.08.15-.14.32-.18.51-.04.19-.05.38-.05.57,0,.18.02.36.05.55Z"/>
    <path class="cls-3" d="M59.61,38.14c-.36.14-.73.21-1.11.21-.62,0-1.07-.2-1.34-.58-.27-.37-.4-.84-.4-1.43,0-.6.16-1.08.45-1.45.29-.36.67-.55,1.16-.56.54.01.93.2,1.17.56.24.36.35.81.35,1.34v.24h-2.62c0,.42.11.76.32,1.03.21.29.52.43.94.44.19,0,.38-.03.59-.1.21-.06.37-.12.49-.19v.48ZM59.37,36.07c0-.35-.07-.66-.22-.92-.16-.27-.41-.4-.76-.41-.35.01-.62.15-.82.42-.21.27-.31.57-.31.91h2.1Z"/>
    <path class="cls-3" d="M61.38,35.28c0-.35-.01-.64-.03-.86h.47v.74h.01c.09-.23.22-.42.38-.58.16-.16.36-.24.6-.25.12,0,.23.02.33.04v.5c-.1-.03-.22-.05-.35-.05-.19,0-.34.05-.46.14-.12.09-.22.21-.29.37-.07.15-.12.31-.15.49-.04.19-.05.37-.05.54v1.89h-.47v-2.97Z"/>
    <path class="cls-3" d="M66.66,37.64h-.02c-.11.23-.28.4-.5.52s-.46.18-.71.19c-.27,0-.48-.05-.65-.13-.17-.08-.3-.17-.39-.29-.16-.25-.24-.47-.23-.67,0-.32.08-.57.23-.76.15-.19.34-.32.58-.4.24-.08.49-.14.77-.17.27-.02.53-.02.78-.02h.09v-.2c.01-.66-.28-.98-.87-.98-.4,0-.77.1-1.13.31v-.46c.35-.17.73-.25,1.13-.26.91,0,1.35.47,1.34,1.43v1.69c0,.29,0,.56.04.8h-.47v-.62ZM66.62,36.33h-.14c-.21,0-.41,0-.62.01-.22.02-.41.06-.59.13-.18.06-.31.15-.42.28-.12.12-.17.29-.17.5,0,.25.08.42.24.52.15.11.33.17.56.17.27,0,.49-.06.65-.17.15-.1.27-.23.34-.38.07-.15.12-.31.13-.46,0-.16.02-.28.02-.38v-.23Z"/>
    <path class="cls-3" d="M68.45,37.86l2.3-3.02h-2.21v-.41h2.76v.41l-2.3,3.02h2.3v.41h-2.85v-.4Z"/>
    <path class="cls-3" d="M73.19,33.41h-.47v-.63h.47v.63ZM72.72,34.43h.47v3.83h-.47v-3.83Z"/>
    <path class="cls-3" d="M77.95,37.35c0,.29,0,.59.03.9h-.46v-.68h-.01c-.04.08-.08.17-.14.25-.06.09-.14.18-.23.26-.09.07-.21.13-.35.18-.14.06-.31.08-.51.08-.47,0-.8-.15-1.01-.42-.21-.27-.31-.62-.3-1.05v-2.45h.47v2.33c0,.37.07.65.22.86.14.22.37.33.69.33.21,0,.4-.05.55-.14.15-.08.26-.2.34-.33.09-.14.15-.29.19-.45.03-.16.05-.32.05-.48v-2.12h.47v2.93Z"/>
    <path class="cls-3" d="M79.72,35.33c0-.3-.01-.6-.03-.9h.46v.68h.02c.04-.09.1-.18.16-.27.06-.09.14-.17.23-.25.1-.08.21-.14.35-.19.14-.04.31-.07.5-.07.47,0,.81.15,1.01.42.2.27.29.62.29,1.05v2.45h-.47v-2.33c0-.37-.07-.66-.2-.87-.15-.21-.38-.31-.71-.31-.42.01-.72.16-.89.45-.09.14-.15.28-.19.44-.04.17-.06.33-.06.5v2.12h-.47v-2.93Z"/>
    <path class="cls-3" d="M87.78,37.94c.23,0,.44-.06.6-.19.16-.11.24-.28.25-.5,0-.23-.1-.4-.28-.53-.18-.12-.39-.24-.64-.34-.11-.05-.23-.11-.33-.17s-.21-.13-.3-.2c-.08-.08-.15-.17-.21-.28-.06-.1-.08-.22-.08-.35,0-.38.14-.65.39-.81.25-.15.53-.23.86-.23.11,0,.25.01.43.03.18.03.35.08.52.14l-.04.41c-.27-.12-.56-.18-.85-.18-.25,0-.44.04-.59.14-.08.04-.13.11-.17.19-.05.08-.07.19-.07.31,0,.08.03.16.08.23.06.06.13.12.22.18.09.05.19.1.31.16.12.05.23.1.34.17.25.1.47.25.65.42.18.18.28.42.29.73,0,.2-.04.37-.12.5-.09.14-.19.25-.32.34-.28.17-.58.25-.89.25-.37,0-.73-.06-1.07-.18l.04-.47c.29.15.62.23,1,.24Z"/>
    <path class="cls-3" d="M91.91,38.26h-.56l-1.3-3.83h.52l1.06,3.31h.01l1.11-3.31h.5l-1.34,3.83Z"/>
    <path class="cls-3" d="M94.97,33.41h-.47v-.63h.47v.63ZM94.5,34.43h.47v3.83h-.47v-3.83Z"/>
    <path class="cls-3" d="M96.4,37.86l2.3-3.02h-2.21v-.41h2.76v.41l-2.3,3.02h2.3v.41h-2.85v-.4Z"/>
    <path class="cls-3" d="M100.67,35.28c0-.35-.01-.64-.03-.86h.47v.74h.01c.09-.23.22-.42.38-.58.16-.16.36-.24.6-.25.12,0,.23.02.33.04v.5c-.1-.03-.22-.05-.35-.05-.19,0-.34.05-.46.14-.12.09-.22.21-.29.37-.07.15-.12.31-.15.49-.04.19-.05.37-.05.54v1.89h-.47v-2.97Z"/>
    <path class="cls-3" d="M105.95,37.64h-.02c-.11.23-.28.4-.5.52s-.46.18-.71.19c-.27,0-.48-.05-.65-.13-.17-.08-.3-.17-.39-.29-.16-.25-.24-.47-.23-.67,0-.32.08-.57.23-.76.15-.19.34-.32.58-.4.24-.08.49-.14.77-.17.27-.02.53-.02.78-.02h.09v-.2c.01-.66-.28-.98-.87-.98-.4,0-.77.1-1.13.31v-.46c.35-.17.73-.25,1.13-.26.91,0,1.35.47,1.34,1.43v1.69c0,.29,0,.56.04.8h-.47v-.62ZM105.9,36.33h-.14c-.21,0-.41,0-.62.01-.22.02-.41.06-.59.13-.18.06-.31.15-.42.28-.12.12-.17.29-.17.5,0,.25.08.42.24.52.15.11.33.17.56.17.27,0,.49-.06.65-.17.15-.1.27-.23.34-.38.07-.15.12-.31.13-.46,0-.16.02-.28.02-.38v-.23Z"/>
  </g>
  <path class="cls-2" d="M21.27,1.74s-3.97-1.74-10.61-1.74h0C4.01,0,.04,1.74.04,1.74.04,1.74-.32,9.43,1.19,13.79c2.66,7.65,9.46,9.8,9.46,9.8h0s6.8-2.15,9.46-9.8c1.51-4.35,1.15-12.05,1.15-12.05Z"/>
  <polygon class="cls-1" points="17.71 8.37 17.71 12.61 12.76 12.61 12.76 17.56 8.52 17.56 8.52 12.61 3.57 12.61 3.57 8.37 8.52 8.37 8.52 3.43 12.76 3.43 12.76 8.37 17.71 8.37"/>
</svg>